<svg width="25" height="24" viewBox="0 0 25 24" fill="none" xmlns="http://www.w3.org/2000/svg">
<path fill-rule="evenodd" clip-rule="evenodd" d="M12.0889 12.6185H12.1209C15.0489 12.6185 17.4299 10.2375 17.4299 7.30951C17.4299 4.38151 15.0489 1.99951 12.1209 1.99951C9.19188 1.99951 6.80988 4.38151 6.80988 7.30651C6.79988 10.2265 9.16688 12.6095 12.0889 12.6185ZM8.23788 7.30951C8.23788 5.16851 9.97988 3.42751 12.1209 3.42751C14.2609 3.42751 16.0019 5.16851 16.0019 7.30951C16.0019 9.44951 14.2609 11.1915 12.1209 11.1915H12.0919C9.95988 11.1835 8.23088 9.44351 8.23788 7.30951Z" fill="#9E9E9E"/>
<path fill-rule="evenodd" clip-rule="evenodd" d="M4.19986 18.1728C4.19986 21.8699 10.1619 21.8699 12.1209 21.8699C15.5199 21.8699 20.0399 21.4888 20.0399 18.1929C20.0399 14.4958 14.0799 14.4958 12.1209 14.4958C8.72086 14.4958 4.19986 14.8769 4.19986 18.1728ZM5.69986 18.1728C5.69986 16.7278 7.85986 15.9958 12.1209 15.9958C16.3809 15.9958 18.5399 16.7348 18.5399 18.1929C18.5399 19.6378 16.3809 20.3699 12.1209 20.3699C7.85986 20.3699 5.69986 19.6308 5.69986 18.1728Z" fill="#9E9E9E"/>
</svg>
