<svg width="24" height="25" viewBox="0 0 24 25" fill="none" xmlns="http://www.w3.org/2000/svg">
<path fill-rule="evenodd" clip-rule="evenodd" d="M7.21629 16.5029C7.05629 16.5029 6.89529 16.4519 6.75929 16.3479C6.43129 16.0949 6.36929 15.6239 6.62229 15.2959L9.61529 11.4059C9.73729 11.2469 9.91829 11.1439 10.1163 11.1189C10.3183 11.0929 10.5163 11.1489 10.6733 11.2739L13.4933 13.4889L15.9603 10.3059C16.2143 9.97687 16.6843 9.91587 17.0123 10.1719C17.3403 10.4259 17.4003 10.8969 17.1463 11.2239L14.2163 15.0039C14.0943 15.1619 13.9143 15.2649 13.7163 15.2889C13.5163 15.3159 13.3183 15.2579 13.1603 15.1349L10.3423 12.9209L7.81129 16.2099C7.66329 16.4019 7.44129 16.5029 7.21629 16.5029Z" fill="#212121"/>
<mask id="mask0_18532_3626" style="mask-type:luminance" maskUnits="userSpaceOnUse" x="17" y="2" width="6" height="6">
<path fill-rule="evenodd" clip-rule="evenodd" d="M17.2953 2.50012H22.6393V7.84502H17.2953V2.50012Z" fill="white"/>
</mask>
<g mask="url(#mask0_18532_3626)">
<path fill-rule="evenodd" clip-rule="evenodd" d="M19.9673 4C19.3213 4 18.7953 4.525 18.7953 5.172C18.7953 5.818 19.3213 6.345 19.9673 6.345C20.6133 6.345 21.1393 5.818 21.1393 5.172C21.1393 4.525 20.6133 4 19.9673 4ZM19.9673 7.845C18.4943 7.845 17.2953 6.646 17.2953 5.172C17.2953 3.698 18.4943 2.5 19.9673 2.5C21.4413 2.5 22.6393 3.698 22.6393 5.172C22.6393 6.646 21.4413 7.845 19.9673 7.845Z" fill="#212121"/>
</g>
<mask id="mask1_18532_3626" style="mask-type:luminance" maskUnits="userSpaceOnUse" x="2" y="3" width="20" height="21">
<path fill-rule="evenodd" clip-rule="evenodd" d="M2 3.34216H21.8619V23.2032H2V3.34216Z" fill="white"/>
</mask>
<g mask="url(#mask1_18532_3626)">
<path fill-rule="evenodd" clip-rule="evenodd" d="M16.2329 23.2032H7.62891C4.26191 23.2032 1.99991 20.8382 1.99991 17.3182V9.23616C1.99991 5.71116 4.26191 3.34216 7.62891 3.34216H14.8969C15.3109 3.34216 15.6469 3.67816 15.6469 4.09216C15.6469 4.50616 15.3109 4.84216 14.8969 4.84216H7.62891C5.12091 4.84216 3.49991 6.56616 3.49991 9.23616V17.3182C3.49991 20.0232 5.08191 21.7032 7.62891 21.7032H16.2329C18.7409 21.7032 20.3619 19.9822 20.3619 17.3182V10.2792C20.3619 9.86516 20.6979 9.52916 21.1119 9.52916C21.5259 9.52916 21.8619 9.86516 21.8619 10.2792V17.3182C21.8619 20.8382 19.5999 23.2032 16.2329 23.2032Z" fill="#212121"/>
</g>
</svg>
