<svg width="33" height="34" viewBox="0 0 33 34" fill="none" xmlns="http://www.w3.org/2000/svg">
<path fill-rule="evenodd" clip-rule="evenodd" d="M19.9062 6.60788L29.9008 23.9537C30.1208 24.4714 30.217 24.8924 30.2445 25.3298C30.2995 26.3516 29.942 27.3449 29.2409 28.1093C28.5398 28.8709 27.5912 29.3205 26.5601 29.375H6.43349C6.00731 29.3491 5.58114 29.2524 5.18245 29.1025C3.18904 28.2986 2.2267 26.0369 3.03782 24.0763L13.1011 6.59561C13.4448 5.98113 13.9672 5.45113 14.6134 5.1105C16.483 4.07365 18.8614 4.7549 19.9062 6.60788ZM17.6928 18.0391C17.6928 18.6931 17.1567 19.2395 16.4968 19.2395C15.8369 19.2395 15.287 18.6931 15.287 18.0391V14.1847C15.287 13.5293 15.8369 12.9993 16.4968 12.9993C17.1567 12.9993 17.6928 13.5293 17.6928 14.1847V18.0391ZM16.4968 23.8992C15.8369 23.8992 15.287 23.3528 15.287 22.7002C15.287 22.0448 15.8369 21.4998 16.4968 21.4998C17.1567 21.4998 17.6928 22.0326 17.6928 22.6852C17.6928 23.3528 17.1567 23.8992 16.4968 23.8992Z" fill="#F75555"/>
</svg>
