<svg width="33" height="34" viewBox="0 0 33 34" fill="none" xmlns="http://www.w3.org/2000/svg">
<path fill-rule="evenodd" clip-rule="evenodd" d="M25.7222 12.595C25.7222 14.3219 26.1787 15.3397 27.1831 16.5127C27.9443 17.3768 28.1875 18.4861 28.1875 19.6895C28.1875 20.8916 27.7926 22.0327 27.0013 22.9592C25.9655 24.0698 24.5046 24.7788 23.0137 24.9021C20.8532 25.0863 18.6913 25.2414 16.5007 25.2414C14.3087 25.2414 12.1482 25.1486 9.98766 24.9021C8.49538 24.7788 7.03453 24.0698 6.00004 22.9592C5.2088 22.0327 4.8125 20.8916 4.8125 19.6895C4.8125 18.4861 5.05711 17.3768 5.81692 16.5127C6.85277 15.3397 7.27914 14.3219 7.27914 12.595V12.0092C7.27914 9.69647 7.85583 8.18421 9.04337 6.70381C10.809 4.54483 13.6391 3.25 16.4392 3.25H16.5622C19.4224 3.25 22.3441 4.60715 24.0796 6.85891C25.2057 8.30885 25.7222 9.7574 25.7222 12.0092V12.595ZM12.4763 28.0836C12.4763 27.3912 13.1118 27.0741 13.6994 26.9384C14.3868 26.793 18.5753 26.793 19.2626 26.9384C19.8503 27.0741 20.4857 27.3912 20.4857 28.0836C20.4515 28.7428 20.0648 29.3272 19.5305 29.6984C18.8376 30.2385 18.0245 30.5805 17.1745 30.7038C16.7044 30.7647 16.2425 30.7661 15.7888 30.7038C14.9375 30.5805 14.1244 30.2385 13.4329 29.697C12.8972 29.3272 12.5105 28.7428 12.4763 28.0836Z" fill="#12D18E"/>
</svg>
