<svg width="27" height="14" viewBox="0 0 27 14" fill="none" xmlns="http://www.w3.org/2000/svg">
<path opacity="0.35" d="M0.5 3.16667C0.5 1.97005 1.47005 1 2.66667 1H22.3333C23.53 1 24.5 1.97005 24.5 3.16667V10.8333C24.5 12.03 23.53 13 22.3333 13H2.66667C1.47005 13 0.5 12.03 0.5 10.8333V3.16667Z" fill="#4AAF57" stroke="#4AAF57"/>
<path opacity="0.4" d="M25.65 5.5V9.5C26.4548 9.16122 26.9781 8.37313 26.9781 7.5C26.9781 6.62687 26.4548 5.83878 25.65 5.5Z" fill="#4AAF57"/>
<path d="M2.30005 4.16659C2.30005 3.43021 2.897 2.83325 3.63338 2.83325H21.1667C21.903 2.83325 22.5 3.43021 22.5 4.16659V9.82992C22.5 10.5663 21.903 11.1633 21.1667 11.1633H3.63338C2.897 11.1633 2.30005 10.5663 2.30005 9.82992V4.16659Z" fill="#4AAF57"/>
</svg>
