<svg width="28" height="28" viewBox="0 0 28 28" fill="none" xmlns="http://www.w3.org/2000/svg">
<path d="M3.76288 14.9466H5.76991C4.85844 15.6021 4.2568 16.6708 4.2568 17.8786V19.8945C4.2568 20.2133 4.37801 20.5007 4.5666 20.7297V21.6277C4.5666 22.3102 5.12336 22.8669 5.81031 22.8669H8.18552C8.87247 22.8669 9.42922 22.3102 9.42922 21.6277V21.2056H18.5663V21.6277C18.5663 22.3102 19.1231 22.8669 19.81 22.8669H22.1852C22.8722 22.8669 23.4289 22.3102 23.4289 21.6277V20.7252C23.6175 20.5007 23.7342 20.2133 23.7342 19.8945V17.8786C23.7342 16.6708 23.1371 15.6021 22.2256 14.9466H24.2326C24.7759 14.9466 25.2249 14.5021 25.2249 13.9543V13.3392C25.2249 12.7959 24.7759 12.3514 24.2326 12.3514H22.2032C21.9562 12.3514 21.7542 12.549 21.7542 12.8004V14.0486H21.6599L21.2154 12.8453C20.7754 11.66 19.6304 10.8652 18.3643 10.8652H9.63127C8.3651 10.8652 7.22016 11.66 6.78015 12.8453L6.33562 14.0486H6.23686V12.8004C6.23686 12.549 6.0393 12.3514 5.78786 12.3514H3.76288C3.21962 12.3514 2.77509 12.7959 2.77509 13.3392V13.9543C2.77509 14.5021 3.21962 14.9466 3.76288 14.9466ZM16.2944 19.2121H11.7011C11.4542 19.2121 11.2521 19.01 11.2521 18.7631C11.2521 18.5116 11.4542 18.3141 11.7011 18.3141H16.2944C16.5413 18.3141 16.7434 18.5116 16.7434 18.7631C16.7434 19.01 16.5413 19.2121 16.2944 19.2121ZM16.2944 17.1602H11.7011C11.4542 17.1602 11.2521 16.9581 11.2521 16.7112C11.2521 16.4642 11.4542 16.2622 11.7011 16.2622H16.2944C16.5413 16.2622 16.7434 16.4642 16.7434 16.7112C16.7434 16.9581 16.5413 17.1602 16.2944 17.1602ZM21.7946 17.7349C21.7946 18.6329 21.0672 19.3647 20.1692 19.3647C19.2712 19.3647 18.5394 18.6329 18.5394 17.7349C18.5394 16.8369 19.2712 16.1095 20.1692 16.1095C21.0672 16.1095 21.7946 16.8369 21.7946 17.7349ZM7.62427 13.1596C7.93408 12.3245 8.73777 11.7632 9.63127 11.7632H18.3643C19.2578 11.7632 20.0615 12.3245 20.3713 13.1596L20.8068 14.336C20.5868 14.2911 20.3578 14.2686 20.1243 14.2686H7.87121C7.63773 14.2686 7.40873 14.2911 7.18873 14.336L7.62427 13.1596ZM7.8263 16.1095C8.72429 16.1095 9.45616 16.8369 9.45616 17.7349C9.45616 18.6329 8.72429 19.3647 7.8263 19.3647C6.9283 19.3647 6.20093 18.6329 6.20093 17.7349C6.20093 16.8369 6.9283 16.1095 7.8263 16.1095Z" fill="#19478D"/>
<path d="M18.1829 7.4993C18.3583 7.32391 18.3583 7.03978 18.1829 6.86439C17.0666 5.74804 15.5801 5.13308 13.9972 5.1333C12.4148 5.1333 10.9284 5.74804 9.81202 6.86439C9.63663 7.03978 9.63663 7.32391 9.81202 7.4993C9.89972 7.587 10.0146 7.63084 10.1295 7.63084C10.2444 7.63084 10.3592 7.587 10.4469 7.4993C11.3936 6.55264 12.6546 6.03129 13.9977 6.03129C15.3403 6.03129 16.6013 6.55264 17.548 7.4993C17.7234 7.67469 18.0075 7.67469 18.1829 7.4993Z" fill="#19478D"/>
<path d="M11.2626 8.31534C11.0872 8.49073 11.0872 8.77486 11.2626 8.95025C11.4379 9.12564 11.7221 9.12564 11.8975 8.95025C13.0563 7.79181 14.9396 7.79268 16.0976 8.95025C16.1853 9.03795 16.3002 9.08179 16.4151 9.08179C16.5299 9.08179 16.6448 9.03795 16.7325 8.95025C16.9079 8.77486 16.9079 8.49073 16.7325 8.31534C16.0029 7.58572 15.0317 7.18408 13.9973 7.18408C12.9634 7.18408 11.9922 7.58572 11.2626 8.31534Z" fill="#19478D"/>
</svg>
