<svg width="20" height="20" viewBox="0 0 20 20" fill="none" xmlns="http://www.w3.org/2000/svg">
    <g id="ideate/line/emailbox2">
        <path id="ideateicons" fill-rule="evenodd" clip-rule="evenodd"
            d="M4.23206 4.15104C4.23206 2.88539 5.25807 1.85938 6.52372 1.85938H13.4762C14.7418 1.85938 15.7679 2.88539 15.7679 4.15104V8.38098C17.0904 8.21782 18.3333 9.24691 18.3333 10.6577V15.849C18.3333 17.1146 17.3073 18.1406 16.0416 18.1406H3.95829C2.69264 18.1406 1.66663 17.1146 1.66663 15.849V10.6577C1.66663 9.24691 2.90956 8.21782 4.23206 8.38098V4.15104ZM5.48206 8.77739L7.32999 9.4597C9.05312 10.0959 10.9468 10.0959 12.6699 9.4597L14.5179 8.77739V4.15104C14.5179 3.57575 14.0515 3.10938 13.4762 3.10938H6.52372C5.94843 3.10938 5.48206 3.57575 5.48206 4.15104V8.77739ZM8.04683 5.06184C8.04683 4.71666 8.32666 4.43684 8.67183 4.43684H11.3281C11.6733 4.43684 11.9531 4.71666 11.9531 5.06184C11.9531 5.40702 11.6733 5.68684 11.3281 5.68684H8.67183C8.32666 5.68684 8.04683 5.40702 8.04683 5.06184ZM7.08329 7.4731C7.08329 7.12792 7.36311 6.8481 7.70829 6.8481H12.2916C12.6368 6.8481 12.9166 7.12792 12.9166 7.4731C12.9166 7.81827 12.6368 8.0981 12.2916 8.0981H7.70829C7.36311 8.0981 7.08329 7.81827 7.08329 7.4731ZM4.3191 9.68047C3.63892 9.42933 2.91663 9.9326 2.91663 10.6577V15.849C2.91663 16.4243 3.383 16.8906 3.95829 16.8906H16.0416C16.6169 16.8906 17.0833 16.4243 17.0833 15.849V10.6577C17.0833 9.9326 16.361 9.42933 15.6808 9.68047L13.1029 10.6323C11.1003 11.3717 8.89957 11.3717 6.89702 10.6323L4.3191 9.68047Z"
            fill="#262626" />
    </g>
</svg>