<svg fill="none" height="64" viewBox="0 0 64 64" width="64" xmlns="http://www.w3.org/2000/svg"><g fill="rgb(0,0,0)"><path clip-rule="evenodd" d="m29.1333 3.85639c1.1361-2.47518 4.5976-2.47519 5.7337 0l2.8706 6.25401 6.5312.9194c2.7282.384 3.5658 3.7036 1.783 5.4842l-4.8224 4.8166 1.2003 6.8862c.4269 2.4489-2.1314 4.7983-4.651 3.376l-5.7786-3.2619-5.7785 3.2619c-2.5196 1.4223-5.078-.9271-4.6511-3.376l1.2004-6.8862-4.8224-4.8166c-1.7828-1.7806-.9453-5.1002 1.783-5.4842l6.5312-.9194zm2.8668 3.34287-2.2864 4.98124c-.4411.9611-1.3401 1.6722-2.4329 1.826l-5.4189.7628 4.017 4.0121c.7566.7556 1.0777 1.8302.8984 2.8585l-.9756 5.5966 4.6627-2.6321c.9551-.5391 2.1164-.5391 3.0714 0l4.6627 2.6321-.9755-5.5966c-.1793-1.0284.1418-2.1029.8984-2.8585l4.0169-4.0121-5.4188-.7628c-1.0928-.1538-1.9918-.8649-2.4329-1.826z" fill-rule="evenodd"/><path clip-rule="evenodd" d="m21.9827 44c0-5.5268 4.4886-10 10.0167-10s10.0167 4.4732 10.0167 10c0 2.8426-1.1874 5.4065-3.0929 7.2264.5101.1875 1.0104.3951 1.5001.6219 1.2566-1.5469 2.8575-2.8051 4.6866-3.6571-.8861-1.1704-1.4118-2.6288-1.4118-4.21 0-3.8556 3.1256-6.9812 6.9812-6.9812 3.8557 0 6.9813 3.1256 6.9813 6.9812 0 1.5812-.5257 3.0395-1.4117 4.2099 2.2029 1.026 4.0752 2.641 5.4133 4.6401.6145.9179.3685 2.1601-.5494 2.7745s-2.1602.3684-2.7746-.5495c-1.6551-2.4725-4.4683-4.0937-7.6589-4.0937-2.6715 0-5.078 1.1367-6.7619 2.9583 1.8526 1.37 3.4598 3.051 4.7437 4.9651.6154.9173.3706 2.1597-.5467 2.775-.9174.6154-2.1598.3705-2.7751-.5468-2.8796-4.2927-7.7795-7.1141-13.3399-7.1141-5.5602 0-10.4586 2.8212-13.3383 7.1141-.6153.9173-1.8577 1.1622-2.775.5468-.9173-.6153-1.1621-1.8577-.5468-2.775 1.2839-1.9141 2.891-3.5952 4.7435-4.9653-1.6841-1.8214-4.0911-2.9581-6.7627-2.9581-3.1904 0-6.00263 1.621-7.65789 4.0937-.61444.9179-1.85664 1.1639-2.77454.5495s-1.1639-1.8566-.54946-2.7745c1.33805-1.9989 3.20984-3.614 5.4124-4.64-.8861-1.1704-1.41176-2.6288-1.41176-4.21 0-3.8556 3.1256-6.9812 6.98125-6.9812 3.8556 0 6.9812 3.1256 6.9812 6.9812 0 1.5812-.5256 3.0395-1.4116 4.2099 1.8292.8519 3.4304 2.11 4.6871 3.6569.4893-.2266.9893-.4341 1.499-.6215-1.9056-1.8199-3.0931-4.3838-3.0931-7.2265zm10.0167 6c3.3269 0 6.0167-2.6902 6.0167-6s-2.6898-6-6.0167-6-6.0167 2.6902-6.0167 6 2.6898 6 6.0167 6zm-18.6793-3.0375c1.6465 0 2.9812-1.3348 2.9812-2.9813s-1.3347-2.9812-2.9812-2.9812-2.9813 1.3347-2.9813 2.9812 1.3348 2.9813 2.9813 2.9813zm37.3592 0c1.6465 0 2.9813-1.3348 2.9813-2.9813s-1.3348-2.9812-2.9813-2.9812-2.9812 1.3347-2.9812 2.9812 1.3347 2.9813 2.9812 2.9813z" fill-rule="evenodd"/><path d="m44.2619 27.6157c-.0709.04-.1418.0769-.2126.1107l-.9684-5.5481 1.5075-1.5037-.4183 2.3996 3.3794-1.9076c.902-.5092 1.9993-.5092 2.9013 0l3.3794 1.9076-.7139-4.0953c-.1684-.9663.133-1.9772.8459-2.6893l2.9621-2.9585-3.9737-.5594c-1.0331-.1454-1.8804-.8171-2.2954-1.7214l-1.655-3.60565-1.2277 2.67445c-.3163-.13873-.6642-.23883-1.0424-.292l-4.732-.66524 1.9378-.27279 2.3588-5.13894c1.0711-2.3335 4.3398-2.33351 5.4109-.00001l2.3588 5.13895 5.3598.7545c2.5794.36313 3.3574 3.49083 1.6832 5.16293l-3.9673 3.9626.9882 5.6692c.4 2.2942-2.0024 4.5251-4.3899 3.1774l-4.7382-2.6747z"/><path d="m20.0644 8.88907 1.9378.27279-4.7319.66524c-.3783.05317-.7262.15327-1.0425.292l-1.2276-2.67445-1.6551 3.60565c-.415.9042-1.2623 1.576-2.2953 1.7214l-3.97383.5594 2.96213 2.9585c.7129.7121 1.0143 1.723.8459 2.6893l-.7139 4.0953 3.3794-1.9076c.902-.5092 1.9993-.5092 2.9013 0l3.3794 1.9076-.4183-2.3996 1.5075 1.5037-.9684 5.5481c-.0708-.0338-.1417-.0707-.2126-.1107l-4.7382-2.6747-4.7383 2.6747c-2.38742 1.3477-4.78985-.8832-4.38991-3.1774l.98825-5.6692-3.96737-3.9626c-1.67412-1.6721-.89618-4.7998 1.68324-5.16293l5.3598-.7545 2.35879-5.13894c1.0711-2.3335 4.3398-2.33351 5.4109-.00001z"/></g></svg>