<svg width="33" height="34" viewBox="0 0 33 34" fill="none" xmlns="http://www.w3.org/2000/svg">
<path fill-rule="evenodd" clip-rule="evenodd" d="M10.5464 3.24976H22.4676C27.1289 3.24976 30.2501 6.52226 30.2501 11.3898V22.6249C30.2501 27.4773 27.1289 30.7498 22.4676 30.7498H10.5464C5.88512 30.7498 2.75012 27.4773 2.75012 22.6249V11.3898C2.75012 6.52226 5.88512 3.24976 10.5464 3.24976ZM15.7164 21.111L22.2476 14.5798C22.7151 14.1123 22.7151 13.356 22.2476 12.8748C21.7801 12.4073 21.0101 12.4073 20.5426 12.8748L14.8639 18.5535L12.4576 16.1473C11.9901 15.6798 11.2201 15.6798 10.7526 16.1473C10.2851 16.6148 10.2851 17.371 10.7526 17.8523L14.0251 21.111C14.2589 21.3448 14.5614 21.4548 14.8639 21.4548C15.1801 21.4548 15.4826 21.3448 15.7164 21.111Z" fill="#12D18E"/>
</svg>
