<svg width="33" height="34" viewBox="0 0 33 34" fill="none" xmlns="http://www.w3.org/2000/svg">
<path fill-rule="evenodd" clip-rule="evenodd" d="M10.5459 3.24878H22.4672C27.1284 3.24878 30.2497 6.52128 30.2497 11.3888V22.6239C30.2497 27.4777 27.1284 30.7488 22.4672 30.7488H10.5459C5.88469 30.7488 2.74969 27.4777 2.74969 22.6239V11.3888C2.74969 6.52128 5.88469 3.24878 10.5459 3.24878ZM20.6384 21.1238C21.1059 20.6577 21.1059 19.9014 20.6384 19.4339L18.1909 16.9864L20.6384 14.5375C21.1059 14.0714 21.1059 13.3014 20.6384 12.8339C20.1709 12.365 19.4147 12.365 18.9334 12.8339L16.4997 15.28L14.0522 12.8339C13.5709 12.365 12.8147 12.365 12.3472 12.8339C11.8797 13.3014 11.8797 14.0714 12.3472 14.5375L14.7947 16.9864L12.3472 19.4202C11.8797 19.9014 11.8797 20.6577 12.3472 21.1238C12.5809 21.3575 12.8972 21.4827 13.1997 21.4827C13.5159 21.4827 13.8184 21.3575 14.0522 21.1238L16.4997 18.6914L18.9472 21.1238C19.1809 21.3727 19.4834 21.4827 19.7859 21.4827C20.1022 21.4827 20.4047 21.3575 20.6384 21.1238Z" fill="#F75555"/>
</svg>
