<svg width="20" height="21" viewBox="0 0 20 21" fill="none" xmlns="http://www.w3.org/2000/svg">
<path fill-rule="evenodd" clip-rule="evenodd" d="M9.81394 11.7212C9.25644 11.7212 8.70061 11.5371 8.23561 11.1687L4.49811 8.1554C4.22895 7.93873 4.18728 7.54456 4.40311 7.27623C4.62061 7.00873 5.01394 6.96623 5.28228 7.18206L9.01645 10.1921C9.48561 10.5637 10.1464 10.5637 10.6189 10.1887L14.3156 7.18373C14.5839 6.96456 14.9773 7.00623 15.1956 7.27456C15.4131 7.54206 15.3723 7.9354 15.1048 8.15373L11.4014 11.1637C10.9331 11.5354 10.3731 11.7212 9.81394 11.7212Z" fill="#212121"/>
<mask id="mask0_18456_10733" style="mask-type:luminance" maskUnits="userSpaceOnUse" x="0" y="2" width="19" height="17">
<path fill-rule="evenodd" clip-rule="evenodd" d="M0.833252 2.16699H18.7498V18.417H0.833252V2.16699Z" fill="white"/>
</mask>
<g mask="url(#mask0_18456_10733)">
<path fill-rule="evenodd" clip-rule="evenodd" d="M5.69909 17.167H13.8824C13.8841 17.1653 13.8908 17.167 13.8958 17.167C14.8466 17.167 15.6899 16.827 16.3366 16.1812C17.0874 15.4337 17.4999 14.3595 17.4999 13.157V7.43366C17.4999 5.10616 15.9783 3.41699 13.8824 3.41699H5.70075C3.60492 3.41699 2.08325 5.10616 2.08325 7.43366V13.157C2.08325 14.3595 2.49659 15.4337 3.24659 16.1812C3.89325 16.827 4.73742 17.167 5.68742 17.167H5.69909ZM5.68492 18.417C4.39909 18.417 3.25075 17.9503 2.36409 17.067C1.37659 16.082 0.833252 14.6937 0.833252 13.157V7.43366C0.833252 4.43116 2.92575 2.16699 5.70075 2.16699H13.8824C16.6574 2.16699 18.7499 4.43116 18.7499 7.43366V13.157C18.7499 14.6937 18.2066 16.082 17.2191 17.067C16.3333 17.9495 15.1841 18.417 13.8958 18.417H13.8824H5.70075H5.68492Z" fill="#212121"/>
</g>
</svg>
