<svg width="24" height="24" viewBox="0 0 24 24" fill="none" xmlns="http://www.w3.org/2000/svg">
<g clip-path="url(#clip0_395_4643)">
<circle cx="15.4225" cy="8.65264" r="2.27092" stroke="white" stroke-width="1.5"/>
<path d="M17.1147 12.8484H13.7312C11.5141 12.8484 9.7168 14.6457 9.7168 16.8628C9.7168 17.6942 10.3908 18.3682 11.2222 18.3682H19.6238C20.4552 18.3682 21.1292 17.6942 21.1292 16.8628C21.1292 14.6457 19.3319 12.8484 17.1147 12.8484Z" stroke="white" stroke-width="1.5" stroke-linecap="round"/>
<circle cx="8.57488" cy="8.65264" r="2.27092" stroke="white" stroke-width="1.5"/>
<path d="M11.9355 13.1874V13.1874C11.3362 12.9632 10.7016 12.8484 10.0617 12.8484H6.88357C4.66646 12.8484 2.86914 14.6457 2.86914 16.8628V16.8628C2.86914 17.6942 3.54314 18.3682 4.37455 18.3682H11.0293" stroke="white" stroke-width="1.5" stroke-linecap="round"/>
</g>
<defs>
<clipPath id="clip0_395_4643">
<rect width="24" height="24" fill="white"/>
</clipPath>
</defs>
</svg>
