<svg width="35" height="20" viewBox="0 0 35 20" fill="none" xmlns="http://www.w3.org/2000/svg">
<path d="M1.54001 7.00751H4.66903C3.24801 8.02952 2.31003 9.69553 2.31003 11.5785V14.7215C2.31003 15.2185 2.49901 15.6665 2.79304 16.0235V17.4235C2.79304 18.4875 3.66103 19.3555 4.73201 19.3555H8.43503C9.50601 19.3555 10.374 18.4875 10.374 17.4235V16.7655H24.619V17.4235C24.619 18.4875 25.487 19.3555 26.558 19.3555H30.261C31.332 19.3555 32.2 18.4875 32.2 17.4235V16.0165C32.494 15.6665 32.676 15.2185 32.676 14.7215V11.5785C32.676 9.69553 31.745 8.02952 30.324 7.00751H33.453C34.3 7.00751 35 6.31451 35 5.46054V4.50154C35 3.65452 34.3 2.96153 33.453 2.96153H30.289C29.904 2.96153 29.589 3.26953 29.589 3.66153V5.60751H29.442L28.749 3.73151C28.063 1.88355 26.278 0.644531 24.304 0.644531H10.689C8.71501 0.644531 6.93002 1.88355 6.24403 3.73151L5.55099 5.60751H5.39702V3.66153C5.39702 3.26953 5.08901 2.96153 4.69702 2.96153H1.54001C0.693036 2.96153 0 3.65452 0 4.50154V5.46054C0 6.31451 0.693036 7.00751 1.54001 7.00751ZM21.077 13.6575H13.916C13.531 13.6575 13.216 13.3425 13.216 12.9575C13.216 12.5655 13.531 12.2575 13.916 12.2575H21.077C21.462 12.2575 21.777 12.5655 21.777 12.9575C21.777 13.3425 21.462 13.6575 21.077 13.6575ZM21.077 10.4585H13.916C13.531 10.4585 13.216 10.1435 13.216 9.75855C13.216 9.37351 13.531 9.05855 13.916 9.05855H21.077C21.462 9.05855 21.777 9.37351 21.777 9.75855C21.777 10.1435 21.462 10.4585 21.077 10.4585ZM29.652 11.3545C29.652 12.7545 28.518 13.8955 27.118 13.8955C25.718 13.8955 24.577 12.7545 24.577 11.3545C24.577 9.95452 25.718 8.82053 27.118 8.82053C28.518 8.82053 29.652 9.95452 29.652 11.3545ZM7.56003 4.22152C8.04304 2.91953 9.29602 2.04453 10.689 2.04453H24.304C25.697 2.04453 26.95 2.91953 27.433 4.22152L28.112 6.05552C27.769 5.98554 27.412 5.95054 27.048 5.95054H7.94503C7.58101 5.95054 7.22401 5.98554 6.88101 6.05552L7.56003 4.22152ZM7.875 8.82053C9.275 8.82053 10.416 9.95452 10.416 11.3545C10.416 12.7545 9.275 13.8955 7.875 13.8955C6.475 13.8955 5.341 12.7545 5.341 11.3545C5.341 9.95452 6.475 8.82053 7.875 8.82053Z" fill="#F75555"/>
</svg>
