<svg width="24" height="25" viewBox="0 0 24 25" fill="none" xmlns="http://www.w3.org/2000/svg">
<path d="M16.3125 4.9766C15.1545 3.63919 13.8511 2.4349 12.4266 1.38597C12.3005 1.29763 12.1502 1.25024 11.9963 1.25024C11.8423 1.25024 11.692 1.29763 11.5659 1.38597C10.144 2.43533 8.84317 3.63961 7.6875 4.9766C5.11031 7.93628 3.75 11.0563 3.75 14C3.75 16.1881 4.61919 18.2865 6.16637 19.8337C7.71354 21.3808 9.81196 22.25 12 22.25C14.188 22.25 16.2865 21.3808 17.8336 19.8337C19.3808 18.2865 20.25 16.1881 20.25 14C20.25 11.0563 18.8897 7.93628 16.3125 4.9766ZM12 20.75C10.2104 20.748 8.49466 20.0363 7.22922 18.7708C5.96378 17.5054 5.25199 15.7896 5.25 14C5.25 8.63472 10.4503 4.15628 12 2.93753C13.5497 4.15628 18.75 8.63285 18.75 14C18.748 15.7896 18.0362 17.5054 16.7708 18.7708C15.5053 20.0363 13.7896 20.748 12 20.75ZM17.2397 14.8757C17.0452 15.9619 16.5226 16.9626 15.7422 17.7428C14.9618 18.5231 13.961 19.0455 12.8747 19.2397C12.8334 19.2463 12.7918 19.2498 12.75 19.25C12.5619 19.25 12.3806 19.1792 12.2422 19.0518C12.1038 18.9244 12.0183 18.7496 12.0028 18.5621C11.9872 18.3746 12.0426 18.1881 12.1581 18.0396C12.2736 17.8911 12.4407 17.7914 12.6262 17.7603C14.1797 17.4988 15.4978 16.1807 15.7612 14.6244C15.7946 14.4282 15.9045 14.2533 16.0667 14.1382C16.229 14.023 16.4304 13.977 16.6266 14.0103C16.8227 14.0437 16.9976 14.1535 17.1128 14.3158C17.228 14.4781 17.2739 14.6795 17.2406 14.8757H17.2397Z" fill="#1A96F0"/>
</svg>
