<svg width="33" height="34" viewBox="0 0 33 34" fill="none" xmlns="http://www.w3.org/2000/svg">
<path opacity="0.4" d="M2.75 9.36462C2.75 5.9945 5.54158 3.25 8.97123 3.25H15.7928C19.2154 3.25 22 5.98625 22 9.35087V24.6354C22 28.0069 19.2084 30.75 15.7774 30.75H8.95864C5.53458 30.75 2.75 28.0138 2.75 24.6491V23.3566V9.36462Z" fill="#235DFF"/>
<path d="M29.946 16.2503L26.033 12.2504C25.6286 11.8379 24.9778 11.8379 24.5747 12.2532C24.173 12.6684 24.1743 13.3381 24.5774 13.7506L26.7213 15.9409H24.6658H13.1291C12.56 15.9409 12.098 16.4153 12.098 16.9997C12.098 17.5854 12.56 18.0584 13.1291 18.0584H26.7213L24.5774 20.2488C24.1743 20.6613 24.173 21.3309 24.5747 21.7462C24.7769 21.9538 25.0407 22.0583 25.3059 22.0583C25.5683 22.0583 25.8322 21.9538 26.033 21.7489L29.946 17.7504C30.1402 17.5511 30.25 17.2816 30.25 16.9997C30.25 16.7192 30.1402 16.4497 29.946 16.2503Z" fill="#235DFF"/>
</svg>
