<svg width="33" height="34" viewBox="0 0 33 34" fill="none" xmlns="http://www.w3.org/2000/svg">
<path opacity="0.4" d="M10.0323 9.36325C10.0323 5.99313 12.8645 3.25 16.3455 3.25H23.2649C26.7374 3.25 29.5625 5.98625 29.5625 9.3495V24.634C29.5625 28.0055 26.7317 30.75 23.2507 30.75H16.3313C12.8588 30.75 10.0323 28.0124 10.0323 24.6478V23.3552V9.36325Z" fill="#235DFF"/>
<path d="M22.0514 16.2491L17.9705 12.2492C17.5488 11.8367 16.87 11.8367 16.4496 12.252C16.0307 12.6672 16.0321 13.3368 16.4524 13.7493L18.687 15.9397H4.51288C3.91933 15.9397 3.4375 16.4141 3.4375 16.9998C3.4375 17.5842 3.91933 18.0572 4.51288 18.0572H18.687L16.4524 20.249C16.0321 20.6615 16.0307 21.3311 16.4496 21.7463C16.6605 21.954 16.9357 22.0585 17.2122 22.0585C17.4859 22.0585 17.7611 21.954 17.9705 21.7491L22.0514 17.7492C22.2539 17.5498 22.3684 17.2803 22.3684 16.9998C22.3684 16.718 22.2539 16.4485 22.0514 16.2491Z" fill="#235DFF"/>
</svg>
