<svg width="25" height="24" viewBox="0 0 25 24" fill="none" xmlns="http://www.w3.org/2000/svg">
<path fill-rule="evenodd" clip-rule="evenodd" d="M9.52572 16.39H14.9119C15.3178 16.39 15.6544 16.05 15.6544 15.64C15.6544 15.23 15.3178 14.9 14.9119 14.9H9.52572C9.11978 14.9 8.78314 15.23 8.78314 15.64C8.78314 16.05 9.11978 16.39 9.52572 16.39ZM12.8723 9.9H9.52572C9.11978 9.9 8.78314 10.24 8.78314 10.65C8.78314 11.06 9.11978 11.39 9.52572 11.39H12.8723C13.2782 11.39 13.6148 11.06 13.6148 10.65C13.6148 10.24 13.2782 9.9 12.8723 9.9ZM19.938 9.02561C20.1708 9.02292 20.4242 9.02 20.6544 9.02C20.902 9.02 21.1 9.22 21.1 9.47V17.51C21.1 19.99 19.1099 22 16.6544 22H8.77324C6.19899 22 4.09998 19.89 4.09998 17.29V6.51C4.09998 4.03 6.09998 2 8.56532 2H13.8525C14.1099 2 14.3079 2.21 14.3079 2.46V5.68C14.3079 7.51 15.8029 9.01 17.6148 9.02C18.038 9.02 18.4112 9.02316 18.7377 9.02593C18.9917 9.02809 19.2175 9.03 19.4168 9.03C19.5577 9.03 19.7404 9.02789 19.938 9.02561ZM20.2111 7.566C19.3972 7.569 18.4378 7.566 17.7477 7.559C16.6526 7.559 15.7507 6.648 15.7507 5.542V2.906C15.7507 2.475 16.2685 2.261 16.5645 2.572C17.1004 3.13476 17.8368 3.90834 18.5699 4.67837C19.3009 5.44632 20.0286 6.21074 20.5507 6.759C20.8398 7.062 20.6279 7.565 20.2111 7.566Z" fill="#19478D"/>
</svg>
