<svg width="25" height="24" viewBox="0 0 25 24" fill="none" xmlns="http://www.w3.org/2000/svg">
<mask id="mask0_18478_8138" style="mask-type:luminance" maskUnits="userSpaceOnUse" x="3" y="2" width="18" height="20">
<path fill-rule="evenodd" clip-rule="evenodd" d="M3.60028 2.01172H20.653V21.8652H3.60028V2.01172Z" fill="white"/>
</mask>
<g mask="url(#mask0_18478_8138)">
<path fill-rule="evenodd" clip-rule="evenodd" d="M8.17338 3.51172C6.51638 3.51172 5.14038 4.85372 5.10138 6.50872V17.2037C5.06438 18.9167 6.41438 20.3277 8.11038 20.3657H16.1744C17.8434 20.2967 19.1654 18.9097 19.1534 17.2097V8.33972L14.5184 3.51172H8.18538H8.17338ZM8.18538 21.8657H8.07638C5.55438 21.8087 3.54638 19.7107 3.60138 17.1877V6.49072C3.65938 4.00972 5.70838 2.01172 8.17138 2.01172H8.18838H14.8384C15.0424 2.01172 15.2374 2.09472 15.3794 2.24172L20.4444 7.51872C20.5784 7.65772 20.6534 7.84472 20.6534 8.03772V17.2037C20.6714 19.7127 18.7174 21.7627 16.2044 21.8647L8.18538 21.8657Z" fill="#9E9E9E"/>
</g>
<path fill-rule="evenodd" clip-rule="evenodd" d="M14.3887 16.1084H8.98868C8.57468 16.1084 8.23868 15.7724 8.23868 15.3584C8.23868 14.9444 8.57468 14.6084 8.98868 14.6084H14.3887C14.8027 14.6084 15.1387 14.9444 15.1387 15.3584C15.1387 15.7724 14.8027 16.1084 14.3887 16.1084Z" fill="#9E9E9E"/>
<path fill-rule="evenodd" clip-rule="evenodd" d="M12.3438 12.3564H8.98779C8.57379 12.3564 8.23779 12.0204 8.23779 11.6064C8.23779 11.1924 8.57379 10.8564 8.98779 10.8564H12.3438C12.7578 10.8564 13.0938 11.1924 13.0938 11.6064C13.0938 12.0204 12.7578 12.3564 12.3438 12.3564Z" fill="#9E9E9E"/>
<path fill-rule="evenodd" clip-rule="evenodd" d="M19.8985 8.98449H17.1435C15.3135 8.97949 13.8255 7.48749 13.8255 5.65949V2.75049C13.8255 2.33649 14.1615 2.00049 14.5755 2.00049C14.9895 2.00049 15.3255 2.33649 15.3255 2.75049V5.65949C15.3255 6.66349 16.1425 7.48149 17.1455 7.48449H19.8985C20.3125 7.48449 20.6485 7.82049 20.6485 8.23449C20.6485 8.64849 20.3125 8.98449 19.8985 8.98449Z" fill="#9E9E9E"/>
</svg>
