<svg width="25" height="24" viewBox="0 0 25 24" fill="none" xmlns="http://www.w3.org/2000/svg">
<path fill-rule="evenodd" clip-rule="evenodd" d="M15.7081 16.885H9.89307C9.47907 16.885 9.14307 16.549 9.14307 16.135C9.14307 15.721 9.47907 15.385 9.89307 15.385H15.7081C16.1221 15.385 16.4581 15.721 16.4581 16.135C16.4581 16.549 16.1221 16.885 15.7081 16.885ZM20.0491 6.158C19.6861 5.838 19.2731 5.476 18.7811 5.021C18.5581 4.841 18.3141 4.635 18.0551 4.417C16.5951 3.186 14.5951 1.5 12.7721 1.5C10.9701 1.5 9.09907 3.092 7.59607 4.371C7.31807 4.607 7.05807 4.829 6.79307 5.044C6.32707 5.476 5.91407 5.839 5.55007 6.16C3.16307 8.261 2.71407 8.812 2.71407 13.713C2.71407 22.5 5.25507 22.5 12.8001 22.5C20.3441 22.5 22.8861 22.5 22.8861 13.713C22.8861 8.811 22.4371 8.26 20.0491 6.158Z" fill="#19478D"/>
</svg>
