<svg width="25" height="24" viewBox="0 0 25 24" fill="none" xmlns="http://www.w3.org/2000/svg">
<path fill-rule="evenodd" clip-rule="evenodd" d="M9.12869 16.1355C9.12869 15.7213 9.46448 15.3855 9.87869 15.3855H15.6937C16.1079 15.3855 16.4437 15.7213 16.4437 16.1355C16.4437 16.5497 16.1079 16.8855 15.6937 16.8855H9.87869C9.46448 16.8855 9.12869 16.5497 9.12869 16.1355Z" fill="#9E9E9E"/>
<path fill-rule="evenodd" clip-rule="evenodd" d="M7.60984 5.97765C7.19729 6.35978 6.82688 6.68822 6.4976 6.97845C6.45113 7.01941 6.40562 7.05949 6.36103 7.09875C6.08212 7.34435 5.83923 7.55824 5.62106 7.75963C5.11575 8.22608 4.79655 8.57827 4.57083 8.97216C4.11833 9.76176 3.94998 10.869 3.94998 13.713C3.94998 15.7691 4.07304 17.2451 4.35114 18.3153C4.62414 19.3658 5.0311 19.9679 5.5702 20.3548C6.13324 20.759 6.93702 20.9997 8.14743 21.1245C9.35664 21.2491 10.865 21.25 12.786 21.25C14.707 21.25 16.2153 21.2491 17.4245 21.1245C18.6349 20.9997 19.4387 20.759 20.0018 20.3548C20.5409 19.9679 20.9478 19.3658 21.2208 18.3153C21.4989 17.2451 21.622 15.7691 21.622 13.713C21.622 10.8689 21.4539 9.76166 21.0016 8.97204C20.776 8.57818 20.4569 8.22601 19.9517 7.75958C19.7334 7.55801 19.4903 7.34391 19.211 7.09801C19.1667 7.05898 19.1215 7.01914 19.0753 6.97843C18.746 6.6882 18.3756 6.35976 17.9631 5.97762C17.7189 5.78041 17.4659 5.56703 17.2037 5.34588C16.6325 4.86414 16.0177 4.34554 15.3544 3.87695C14.3694 3.18118 13.4775 2.75 12.758 2.75C12.0409 2.75 11.161 3.18121 10.1891 3.87803C9.55482 4.33278 8.9746 4.827 8.4294 5.29137C8.14774 5.53128 7.87542 5.76323 7.60984 5.97765ZM9.3151 2.65897C10.3154 1.94179 11.5321 1.25 12.758 1.25C13.9805 1.25 15.207 1.93632 16.2198 2.6518C16.9358 3.15759 17.6441 3.75449 18.237 4.25416C18.4899 4.46729 18.7218 4.66274 18.9244 4.82587C18.938 4.83681 18.9512 4.84822 18.964 4.86008C19.37 5.23662 19.7354 5.5607 20.0672 5.85318C20.1122 5.89284 20.1567 5.93205 20.2007 5.97083C20.4786 6.21553 20.7368 6.4429 20.9692 6.65748C21.5085 7.15537 21.9624 7.63157 22.3031 8.22646C22.9836 9.41434 23.122 10.9261 23.122 13.713C23.122 15.8004 23.0002 17.432 22.6726 18.6926C22.3399 19.9727 21.7805 20.9245 20.8765 21.5734C19.9964 22.2051 18.8803 22.4824 17.5783 22.6166C16.2837 22.75 14.6994 22.75 12.8231 22.75H12.7488C10.8726 22.75 9.28829 22.75 7.99363 22.6166C6.69163 22.4824 5.5756 22.2051 4.69551 21.5734C3.79149 20.9245 3.23202 19.9727 2.89936 18.6926C2.57179 17.432 2.44998 15.8004 2.44998 13.713C2.44998 10.926 2.58863 9.41424 3.26939 8.22634C3.61028 7.63148 4.06428 7.1553 4.60363 6.65743C4.83581 6.4431 5.09374 6.216 5.37129 5.97161C5.41563 5.93257 5.46046 5.89309 5.50578 5.85316C5.83759 5.56069 6.20298 5.23661 6.60899 4.86008C6.62182 4.84818 6.63506 4.83674 6.64869 4.82577C6.86081 4.65502 7.10837 4.44454 7.37991 4.21367C7.95389 3.72566 8.63503 3.14655 9.3151 2.65897Z" fill="#9E9E9E"/>
</svg>
