<svg width="20" height="20" viewBox="0 0 20 20" fill="none" xmlns="http://www.w3.org/2000/svg">
<g id="ideate/line/info2">
<path id="ideateicons" fill-rule="evenodd" clip-rule="evenodd" d="M9.99996 2.91602C6.08794 2.91602 2.91663 6.08733 2.91663 9.99935C2.91663 13.9114 6.08794 17.0827 9.99996 17.0827C13.912 17.0827 17.0833 13.9114 17.0833 9.99935C17.0833 6.08733 13.912 2.91602 9.99996 2.91602ZM1.66663 9.99935C1.66663 5.39698 5.39759 1.66602 9.99996 1.66602C14.6023 1.66602 18.3333 5.39698 18.3333 9.99935C18.3333 14.6017 14.6023 18.3327 9.99996 18.3327C5.39759 18.3327 1.66663 14.6017 1.66663 9.99935ZM9.99833 6.87435C10.3435 6.87435 10.6233 7.15417 10.6233 7.49935V10.7982C10.6233 11.1434 10.3435 11.4232 9.99833 11.4232C9.65315 11.4232 9.37333 11.1434 9.37333 10.7982V7.49935C9.37333 7.15417 9.65315 6.87435 9.99833 6.87435ZM9.37333 12.4993C9.37333 12.1542 9.65315 11.8743 9.99833 11.8743H10.0016C10.3468 11.8743 10.6266 12.1542 10.6266 12.4993C10.6266 12.8445 10.3468 13.1243 10.0016 13.1243H9.99833C9.65315 13.1243 9.37333 12.8445 9.37333 12.4993Z" fill="#262626"/>
</g>
</svg>
