<svg id="Layer_1" viewBox="0 0 512 512" xmlns="http://www.w3.org/2000/svg" data-name="Layer 1"><g fill-rule="evenodd"><path d="m336.614 53.259a5.848 5.848 0 0 1 -.344-8.271l24.978-27.1a5.838 5.838 0 0 1 6.427-1.485 5.5 5.5 0 0 1 1.131.609.36.36 0 0 0 .04.022 5.7 5.7 0 0 1 .79.65c.032.031.068.053.108.086l27.047 27.045a5.854 5.854 0 1 1 -8.277 8.28l-17.114-17.109v82.534a5.854 5.854 0 1 1 -11.707 0v-81.677l-14.816 16.078a5.843 5.843 0 0 1 -8.263.338zm-276.914-16.415-14.813 16.077a5.856 5.856 0 0 1 -8.616-7.933l24.979-27.1a5.851 5.851 0 0 1 6.435-1.488 5.673 5.673 0 0 1 1.122.609c.011.007.03.015.039.022a5.958 5.958 0 0 1 .791.65.692.692 0 0 1 .107.086l27.044 27.047a5.852 5.852 0 1 1 -8.273 8.28l-17.115-17.108v82.534a5.855 5.855 0 1 1 -11.709 0v-81.676zm361.69 342.641c-6.383 6.381-12.822 12.889-19.056 19.183s-12.664 12.8-19.034 19.173a6.02 6.02 0 0 1 -8.459 0c-2.8-2.8-5.678-6.049-8.732-9.488-3.267-3.684-6.644-7.491-10.175-11.022a5.975 5.975 0 0 1 8.448-8.453l11.226 11.222a5.847 5.847 0 0 0 8.272 0l29.067-29.058a5.968 5.968 0 0 1 8.438 8.441zm-16.722-16.719-24.919 24.917-7.082-7.084a17.687 17.687 0 0 0 -25.016 25.011c3.289 3.282 6.546 6.959 9.7 10.514 3.172 3.571 6.167 6.948 9.22 10a17.712 17.712 0 0 0 25 0c6.391-6.392 12.848-12.911 19.083-19.217 6.226-6.283 12.644-12.779 19-19.138a17.674 17.674 0 0 0 -24.993-25zm-19.268 109.111a80.16 80.16 0 1 0 -80.157-80.158 80.25 80.25 0 0 0 80.157 80.158zm-162.935 8.131 81-46.767a91.85 91.85 0 0 1 70.427-132.671v-82.837l-151.424 87.425v174.85zm-163.129-262.275 69.962 40.39v56.559a5.852 5.852 0 1 0 11.7 0v-49.8l69.756 40.276v174.85l-151.418-87.425zm157.28-97.562-151.428 87.422 69.866 40.333 151.424-87.426-69.862-40.331zm0 174.848-69.858-40.334 151.428-87.422 69.853 40.33zm168.984 4.833v-92.259a5.847 5.847 0 0 0 -2.93-5.067l-163.13-94.185a5.859 5.859 0 0 0 -5.855 0l-163.13 94.184a5.87 5.87 0 0 0 -2.928 5.07v188.366a5.87 5.87 0 0 0 2.926 5.071l163.135 94.184a5.853 5.853 0 0 0 5.851 0l89.9-51.9a91.854 91.854 0 1 0 76.161-143.462z" fill="#57a4ff"/><g fill="#9bc9ff"><path d="m355.929 397.331c3.531 3.531 6.908 7.338 10.175 11.022 3.054 3.439 5.935 6.688 8.732 9.488a6.02 6.02 0 0 0 8.459 0c6.37-6.37 12.811-12.88 19.034-19.173s12.673-12.8 19.056-19.183a5.968 5.968 0 0 0 -8.438-8.441l-29.067 29.056a5.847 5.847 0 0 1 -8.272 0l-11.231-11.223a5.975 5.975 0 0 0 -8.448 8.453z"/><path d="m210.759 480.008v-174.85l-69.759-40.276v49.8a5.852 5.852 0 1 1 -11.7 0v-56.559l-69.962-40.39v174.85z"/></g></g></svg>