<svg width="33" height="34" viewBox="0 0 33 34" fill="none" xmlns="http://www.w3.org/2000/svg">
<path d="M29.4627 4.04516C28.7752 3.34254 27.7577 3.08266 26.809 3.35766L4.6852 9.75004C3.6842 10.0278 2.9747 10.8212 2.78358 11.8277C2.58833 12.8534 3.27033 14.1569 4.16133 14.7014L11.079 18.9254C11.7885 19.3599 12.7042 19.2513 13.2913 18.6628L21.2127 10.7414C21.6115 10.3275 22.2715 10.3275 22.6702 10.7414C23.069 11.1388 23.069 11.7864 22.6702 12.1989L14.7351 20.1203C14.1466 20.7088 14.0366 21.6218 14.4697 22.3327L18.6965 29.2764C19.1915 30.1 20.044 30.5689 20.979 30.5689C21.089 30.5689 21.2127 30.5689 21.3227 30.5538C22.3952 30.4177 23.2477 29.6875 23.564 28.6563L30.1227 6.69891C30.4115 5.76391 30.1502 4.74641 29.4627 4.04516Z" fill="#F75555"/>
<path opacity="0.4" fill-rule="evenodd" clip-rule="evenodd" d="M4.13949 23.6108C3.87549 23.6108 3.61149 23.5104 3.41074 23.3083C3.00786 22.9054 3.00786 22.2536 3.41074 21.8508L5.28761 19.9725C5.69049 19.571 6.34361 19.571 6.74649 19.9725C7.14799 20.3754 7.14799 21.0285 6.74649 21.4314L4.86824 23.3083C4.66749 23.5104 4.40349 23.6108 4.13949 23.6108ZM9.31114 25.2503C9.04714 25.2503 8.78314 25.1499 8.58239 24.9478C8.17951 24.5449 8.17951 23.8932 8.58239 23.4903L10.4593 21.6121C10.8621 21.2106 11.5153 21.2106 11.9181 21.6121C12.3196 22.0149 12.3196 22.6681 11.9181 23.0709L10.0399 24.9478C9.83914 25.1499 9.57514 25.2503 9.31114 25.2503ZM9.65998 30.1563C9.86073 30.3584 10.1247 30.4588 10.3887 30.4588C10.6527 30.4588 10.9167 30.3584 11.1175 30.1563L12.9957 28.2794C13.3972 27.8766 13.3972 27.2234 12.9957 26.8206C12.5929 26.4191 11.9397 26.4191 11.5369 26.8206L9.65998 28.6988C9.2571 29.1017 9.2571 29.7534 9.65998 30.1563Z" fill="#F75555"/>
</svg>
