<svg width="32" height="38" viewBox="0 0 32 38" fill="none" xmlns="http://www.w3.org/2000/svg">
<path fill-rule="evenodd" clip-rule="evenodd" d="M0.416672 15.9157C0.416672 7.48264 7.46379 0.666504 15.988 0.666504C24.5362 0.666504 31.5833 7.48264 31.5833 15.9157C31.5833 20.1653 30.0379 24.1105 27.4941 27.4544C24.6878 31.143 21.229 34.3567 17.3357 36.8793C16.4446 37.4623 15.6404 37.5063 14.6625 36.8793C10.747 34.3567 7.28816 31.143 4.50592 27.4544C1.96031 24.1105 0.416672 20.1653 0.416672 15.9157ZM10.8561 16.3905C10.8561 19.2156 13.1614 21.4376 15.988 21.4376C18.8164 21.4376 21.1439 19.2156 21.1439 16.3905C21.1439 13.5875 18.8164 11.2574 15.988 11.2574C13.1614 11.2574 10.8561 13.5875 10.8561 16.3905Z" fill="white"/>
</svg>
