<svg width="512" height="512" viewBox="0 0 512 512" fill="none" xmlns="http://www.w3.org/2000/svg">
<path d="M68.8104 273.308H105.51C88.8433 285.295 77.8419 304.836 77.8419 326.921V363.785C77.8419 369.615 80.0584 374.869 83.507 379.056V395.477C83.507 407.956 93.6876 418.137 106.249 418.137H149.681C162.243 418.137 172.423 407.956 172.423 395.477V387.759H339.502V395.477C339.502 407.956 349.682 418.137 362.244 418.137H405.676C418.237 418.137 428.418 407.956 428.418 395.477V378.974C431.867 374.869 434.001 369.615 434.001 363.785V326.921C434.001 304.836 423.082 285.295 406.415 273.308H443.115C453.049 273.308 461.259 265.18 461.259 255.164V243.916C461.259 233.982 453.049 225.854 443.115 225.854H406.004C401.489 225.854 397.794 229.466 397.794 234.064V256.888H396.07L387.942 234.885C379.896 213.21 358.96 198.678 335.807 198.678H176.118C152.965 198.678 132.029 213.21 123.983 234.885L115.855 256.888H114.049V234.064C114.049 229.466 110.436 225.854 105.839 225.854H68.8104C58.8763 225.854 50.7478 233.982 50.7478 243.916V255.164C50.7478 265.18 58.8763 273.308 68.8104 273.308ZM297.958 351.305H213.967C209.452 351.305 205.757 347.611 205.757 343.095C205.757 338.498 209.452 334.885 213.967 334.885H297.958C302.473 334.885 306.168 338.498 306.168 343.095C306.168 347.611 302.473 351.305 297.958 351.305ZM297.958 313.785H213.967C209.452 313.785 205.757 310.091 205.757 305.575C205.757 301.059 209.452 297.365 213.967 297.365H297.958C302.473 297.365 306.168 301.059 306.168 305.575C306.168 310.091 302.473 313.785 297.958 313.785ZM398.533 324.294C398.533 340.714 385.233 354.097 368.812 354.097C352.392 354.097 339.009 340.714 339.009 324.294C339.009 307.874 352.392 294.573 368.812 294.573C385.233 294.573 398.533 307.874 398.533 324.294ZM139.419 240.632C145.084 225.361 159.78 215.098 176.118 215.098H335.807C352.145 215.098 366.841 225.361 372.506 240.632L380.471 262.143C376.448 261.322 372.26 260.911 367.991 260.911H143.934C139.665 260.911 135.477 261.322 131.454 262.143L139.419 240.632ZM143.113 294.573C159.533 294.573 172.916 307.874 172.916 324.294C172.916 340.714 159.533 354.097 143.113 354.097C126.692 354.097 113.392 340.714 113.392 324.294C113.392 307.874 126.692 294.573 143.113 294.573Z" fill="white"/>
<path d="M332.494 137.13C335.701 133.923 335.701 128.728 332.494 125.52C312.08 105.107 284.9 93.8622 255.956 93.8662C227.019 93.8662 199.839 105.107 179.426 125.52C176.219 128.728 176.219 133.923 179.426 137.13C181.029 138.734 183.13 139.536 185.231 139.536C187.331 139.536 189.432 138.734 191.036 137.13C208.346 119.82 231.405 110.287 255.964 110.287C280.514 110.287 303.573 119.82 320.884 137.13C324.091 140.337 329.286 140.337 332.494 137.13Z" fill="white"/>
<path d="M205.945 152.047C202.738 155.254 202.738 160.45 205.945 163.657C209.152 166.864 214.348 166.864 217.555 163.657C238.746 142.474 273.183 142.49 294.358 163.657C295.961 165.261 298.062 166.062 300.162 166.062C302.263 166.062 304.364 165.261 305.967 163.657C309.174 160.45 309.174 155.254 305.967 152.047C292.626 138.706 274.866 131.361 255.952 131.361C237.046 131.361 219.287 138.706 205.945 152.047Z" fill="white"/>
</svg>
