<svg width="394" height="248" viewBox="0 0 394 248" fill="none" xmlns="http://www.w3.org/2000/svg">
<path d="M390.302 71.6895L334.494 5.63176C329.08 -0.78545 319.47 -1.6066 313.052 3.83738C306.635 9.25095 305.814 18.8616 311.258 25.2788L359.068 81.8475L260.164 207.363L216.368 151.768L249.884 109.219C269.196 84.7064 269.196 50.4611 249.884 25.9479C237.049 9.64639 217.767 0.279079 196.995 0.279079C176.253 0.279079 156.971 9.64639 144.137 25.9479C124.824 50.4611 124.824 84.7368 144.137 109.25L177.652 151.798L133.857 207.394L34.953 81.878L82.7627 25.3092C88.1763 18.892 87.3856 9.31181 80.9683 3.86783C74.5511 -1.54574 64.9709 -0.755007 59.5269 5.6622L3.71855 71.7199C-0.934689 77.2247 -1.0868 85.2843 3.38395 90.9412L121.905 241.365C124.794 245.015 129.204 247.174 133.857 247.174C138.51 247.174 142.92 245.045 145.81 241.365L197.026 176.372L248.211 241.365C251.1 245.015 255.51 247.174 260.164 247.174C264.817 247.174 269.227 245.045 272.116 241.365L390.637 90.9412C395.077 85.2539 394.955 77.2247 390.302 71.6895ZM168.011 44.7129C175.067 35.7714 185.621 30.6619 196.995 30.6619C208.37 30.6619 218.954 35.8018 225.979 44.7433C236.563 58.186 236.563 76.951 225.979 90.3936L196.995 127.194L168.011 90.3936C157.427 76.951 157.427 58.1556 168.011 44.7129Z" fill="white"/>
<path d="M206.541 75.0699C210.009 70.66 210.009 64.4557 206.541 60.0458C201.675 53.8719 192.308 53.8719 187.442 60.0458C183.975 64.4557 183.975 70.66 187.442 75.0699C192.308 81.2439 201.675 81.2439 206.541 75.0699Z" fill="white"/>
</svg>
