<svg width="24" height="24" viewBox="0 0 24 24" fill="none" xmlns="http://www.w3.org/2000/svg">
<circle cx="12.0001" cy="14.2232" r="6.74064" transform="rotate(-180 12.0001 14.2232)" stroke="white" stroke-width="1.5"/>
<path d="M15.157 13.279L15.157 13.279C15.1894 13.3536 15.2135 13.4313 15.229 13.5108C15.3329 14.0455 14.9676 14.4197 14.819 14.5641C14.6363 14.7417 14.3735 14.9418 14.0934 15.1548C14.0938 15.1561 14.0942 15.1574 14.0947 15.1588C14.203 15.5078 14.3034 15.8311 14.3513 16.0857C14.3765 16.2199 14.3986 16.3899 14.3795 16.5664C14.359 16.7568 14.2851 16.9939 14.0832 17.1876M15.157 13.279L14.0832 17.1876M15.157 13.279C14.9318 12.7616 14.3974 12.6793 14.1951 12.6538C13.9532 12.6232 13.6393 12.6221 13.3074 12.6221C13.2018 12.2818 13.1034 11.9668 13.0012 11.7358C12.9463 11.612 12.8675 11.4575 12.7492 11.3221C12.6205 11.1749 12.4155 11.0185 12.1266 10.9841C12.0423 10.9741 11.9573 10.9741 11.8731 10.9841C11.5842 11.0185 11.3791 11.1749 11.2504 11.3221M15.157 13.279L11.2504 11.3221M14.0832 17.1876C14.0234 17.245 13.9569 17.2957 13.8848 17.3384C13.6359 17.4858 13.3776 17.4891 13.1783 17.4465C12.9983 17.408 12.8417 17.3281 12.7256 17.2604C12.5163 17.1383 12.266 16.9497 11.9998 16.7472C11.7336 16.9497 11.4833 17.1383 11.274 17.2604C11.158 17.3281 11.0014 17.408 10.8213 17.4465C10.622 17.4891 10.3637 17.4858 10.1148 17.3384L14.0832 17.1876ZM11.2504 11.3221C11.1321 11.4575 11.0533 11.612 10.9985 11.7358M11.2504 11.3221L10.9985 11.7358M10.9985 11.7358C10.8962 11.9668 10.7978 12.2818 10.6922 12.6221M10.9985 11.7358L10.6922 12.6221M10.6922 12.6221C10.3603 12.6221 10.0464 12.6232 9.80449 12.6538C9.60218 12.6793 9.06779 12.7616 8.84266 13.279C8.81019 13.3536 8.78611 13.4313 8.77066 13.5108C8.66667 14.0455 9.03198 14.4197 9.18061 14.5641C9.36331 14.7417 9.62612 14.9418 9.9062 15.1548C9.90578 15.1561 9.90537 15.1574 9.90495 15.1588C9.79659 15.5078 9.69619 15.8311 9.64836 16.0857C9.62314 16.2199 9.60098 16.3899 9.62007 16.5664C9.64066 16.7568 9.71453 16.9939 9.91645 17.1876C9.97626 17.245 10.0427 17.2957 10.1148 17.3384L10.6922 12.6221ZM10.708 14.9205L10.355 15.0093L10.355 15.0093L10.0156 15.0946L10.355 15.0093L10.355 15.0093L10.708 14.9205ZM10.708 14.9205C10.7332 15.0205 10.7001 15.1271 10.6339 15.3403C10.3953 16.109 10.2761 16.4933 10.4356 16.6463C10.4543 16.6643 10.475 16.68 10.4971 16.6931L10.708 14.9205ZM13.3849 12.8622C13.3851 12.8625 13.3851 12.8627 13.3851 12.8627C13.3851 12.8627 13.3851 12.8625 13.385 12.8623C13.385 12.8623 13.3849 12.8622 13.3849 12.8622Z" stroke="white" stroke-width="1.5"/>
<path d="M17.5864 5.05762L17.5864 3.35206C17.5864 2.79545 17.0855 2.37277 16.5368 2.46645V2.46645C13.5343 2.97909 10.4667 2.97909 7.46419 2.46645V2.46645C6.91552 2.37276 6.41455 2.79544 6.41455 3.35206L6.41455 5.05762" stroke="white" stroke-width="1.5" stroke-linecap="round"/>
<path d="M13.5004 6.98926L14.5356 3.12555" stroke="white" stroke-width="1.5"/>
<path d="M10.5004 6.98926L9.46509 3.12555" stroke="white" stroke-width="1.5"/>
</svg>
