<svg width="24" height="24" viewBox="0 0 24 24" fill="none" xmlns="http://www.w3.org/2000/svg">
<g clip-path="url(#clip0_395_4665)">
<circle cx="12" cy="12" r="9.25" stroke="white" stroke-width="1.5"/>
<path d="M10.5859 9.58662C10.5859 10.298 9.97832 10.9232 9.16794 10.9232C8.35755 10.9232 7.75 10.298 7.75 9.58662C7.75 8.87519 8.35755 8.25 9.16794 8.25C9.97832 8.25 10.5859 8.87519 10.5859 9.58662Z" stroke="white" stroke-width="1.5"/>
<path d="M16.2501 14.4133C16.2501 15.1247 15.6425 15.7499 14.8321 15.7499C14.0217 15.7499 13.4142 15.1247 13.4142 14.4133C13.4142 13.7019 14.0217 13.0767 14.8321 13.0767C15.6425 13.0767 16.2501 13.7019 16.2501 14.4133Z" stroke="white" stroke-width="1.5"/>
<path d="M15.4835 7.80761L8.70585 16.1921" stroke="white" stroke-width="1.5" stroke-linecap="round"/>
</g>
<defs>
<clipPath id="clip0_395_4665">
<rect width="24" height="24" fill="white"/>
</clipPath>
</defs>
</svg>
