<svg width="24" height="24" viewBox="0 0 24 24" fill="none" xmlns="http://www.w3.org/2000/svg">
<path d="M0.344208 9.42271C0.346857 9.79245 0.468325 10.1515 0.690678 10.447C0.913031 10.7424 1.22448 10.9585 1.57905 11.0633L9.9528 13.6402L12.5297 22.014C12.6347 22.3684 12.8508 22.6798 13.1462 22.9021C13.4416 23.1244 13.8006 23.246 14.1703 23.2488H14.2031C14.5656 23.2522 14.92 23.1412 15.2159 22.9317C15.5118 22.7222 15.7342 22.4248 15.8514 22.0818L22.9848 2.84161C22.9871 2.83594 22.989 2.83009 22.9903 2.82411C23.0969 2.5144 23.1145 2.18097 23.041 1.86177C22.9675 1.54256 22.8059 1.25038 22.5746 1.01848C22.3433 0.786578 22.0515 0.624255 21.7325 0.549979C21.4134 0.475704 21.08 0.492457 20.77 0.598332L20.7525 0.603801L1.51124 7.74161C1.16284 7.8607 0.861654 8.08808 0.65169 8.39054C0.441723 8.69299 0.333982 9.05466 0.344208 9.42271Z" fill="#19478D"/>
</svg>
