<svg viewBox="0 0 512 512" xmlns="http://www.w3.org/2000/svg"><g id="FILES_AND_FOLDER_grey" data-name="FILES AND FOLDER grey"><path d="m284.08 425.62a1734.47 1734.47 0 0 1 -199.29-6.73c-18.25-1.83-36.93-19.89-39.26-37.89a1063.72 1063.72 0 0 1 0-252.25c2.32-18 21-36.06 39.25-37.89 23-2.11 46.4-3.78 69.46-5a8.42 8.42 0 0 1 7.16 3.2c13.18 16.09 27.35 33 43.31 51.62a39.06 39.06 0 0 0 29.69 13.64h.08c58-.17 116.42 1.36 173.71 4.49 18.92 1.16 36.43 17.4 37.49 34.7 1.88 32.68 2.24 65.65 1.1 98.36a116 116 0 0 1 36.68 28.13 1105.3 1105.3 0 0 0 .12-128.71c-2.24-36.52-35.08-68.1-73.2-70.39h-.1c-58-3.18-117.23-4.68-175.93-4.55a1.05 1.05 0 0 1 -.82-.36c-15.78-18.43-29.77-35.1-42.78-51a46.27 46.27 0 0 0 -38.48-17.07c-23.6 1.2-47.51 2.91-71.08 5.08h-.12c-35.89 3.56-68.77 35.41-73.29 71a.68.68 0 0 1 0 .14 1102.78 1102.78 0 0 0 0 261.42.59.59 0 0 1 0 .14c4.53 35.6 37.41 67.45 73.29 71h.13c53.59 4.92 107.74 7.39 161.75 7.39q29.36 0 58.61-1a115.53 115.53 0 0 1 -17.48-37.47z"/><path d="m396.15 280.29a115.86 115.86 0 1 0 115.85 115.85 115.85 115.85 0 0 0 -115.85-115.85zm77.85 115.85a77.32 77.32 0 0 1 -9.7 37.57l-105.72-105.71a77.82 77.82 0 0 1 115.42 68.14zm-155.72 0a77.41 77.41 0 0 1 12.5-42.22l107.59 107.59a77.8 77.8 0 0 1 -120.08-65.37z" fill="#969696"/></g></svg>