<svg width="124" height="120" viewBox="0 0 124 120" fill="none" xmlns="http://www.w3.org/2000/svg">
<ellipse cx="41.6668" cy="117.666" rx="2.33333" ry="2.33333" fill="#19478D"/>
<ellipse cx="81.3332" cy="114" rx="0.666668" ry="0.666664" fill="#19478D"/>
<ellipse cx="6.66683" cy="88.6663" rx="3.33333" ry="3.33333" fill="#19478D"/>
<circle cx="63.6665" cy="61" r="47" fill="#19478D"/>
<ellipse cx="110.333" cy="107" rx="1.66667" ry="1.66666" fill="#19478D"/>
<circle cx="113.667" cy="73.6667" r="1.66667" fill="#19478D"/>
<ellipse cx="0.666667" cy="49.9997" rx="0.666667" ry="0.666668" fill="#19478D"/>
<path d="M76.8109 64.8216L77.1175 61.98C77.2792 60.4633 77.3875 59.4633 77.3025 58.8333H77.3325C77.903 58.8331 78.4563 58.6379 78.9005 58.2799C79.3447 57.922 79.6531 57.4229 79.7746 56.8655C79.896 56.3081 79.8231 55.7259 79.5681 55.2156C79.313 54.7053 78.8911 54.2976 78.3724 54.0601C77.8537 53.8227 77.2693 53.7698 76.7164 53.9102C76.1635 54.0507 75.6752 54.376 75.3327 54.8322C74.9901 55.2884 74.8139 55.848 74.8333 56.4182C74.8527 56.9884 75.0665 57.5347 75.4392 57.9666C74.8959 58.3016 74.1859 59.01 73.1175 60.075C72.2925 60.8966 71.8808 61.3066 71.4208 61.37C71.1659 61.4051 70.9063 61.3688 70.6709 61.265C70.2475 61.0783 69.9642 60.5716 69.3992 59.5566L66.4158 54.2083C66.0675 53.5833 65.7759 53.0583 65.5125 52.6383C66.1796 52.2984 66.7129 51.7438 67.0263 51.0638C67.3398 50.3838 67.4152 49.6182 67.2404 48.8901C67.0656 48.1621 66.6508 47.5141 66.0628 47.0506C65.4748 46.587 64.7479 46.335 63.9992 46.335C63.2505 46.335 62.5235 46.587 61.9355 47.0506C61.3476 47.5141 60.9327 48.1621 60.758 48.8901C60.5832 49.6182 60.6586 50.3838 60.972 51.0638C61.2855 51.7438 61.8187 52.2984 62.4858 52.6383C62.2225 53.06 61.9308 53.5833 61.5808 54.2083L58.5992 59.5566C58.0325 60.5716 57.7492 61.0783 57.3258 61.265C57.0904 61.3688 56.8308 61.4051 56.5759 61.37C56.1175 61.3066 55.7059 60.8966 54.8808 60.075C53.8125 59.01 53.1025 58.3016 52.5592 57.9666C52.9319 57.5347 53.1457 56.9884 53.1651 56.4182C53.1844 55.848 53.0082 55.2884 52.6657 54.8322C52.3231 54.376 51.8349 54.0507 51.282 53.9102C50.729 53.7698 50.1447 53.8227 49.626 54.0601C49.1072 54.2976 48.6853 54.7053 48.4303 55.2156C48.1752 55.7259 48.1024 56.3081 48.2238 56.8655C48.3452 57.4229 48.6537 57.922 49.0979 58.2799C49.5421 58.6379 50.0954 58.8331 50.6658 58.8333H50.6959C50.6109 59.4633 50.7192 60.465 50.8809 61.98L51.1875 64.8216C51.3575 66.3983 51.4975 67.9 51.6709 69.25H76.3275C76.5008 67.9 76.6409 66.4 76.8109 64.8216ZM62.1858 76.3333H65.8125C70.5392 76.3333 72.9025 76.3333 74.4792 74.9216C75.1675 74.305 75.6025 73.195 75.9175 71.75H52.0808C52.3959 73.195 52.8309 74.3066 53.5192 74.9216C55.0958 76.3333 57.4592 76.3333 62.1858 76.3333Z" fill="white"/>
<ellipse cx="119" cy="18.333" rx="5" ry="5" fill="#19478D"/>
<ellipse cx="71.0002" cy="2.99967" rx="1.66666" ry="1.66667" fill="#19478D"/>
<ellipse cx="13.3332" cy="6.66667" rx="6.66667" ry="6.66667" fill="#19478D"/>
</svg>
