<svg width="24" height="24" viewBox="0 0 24 24" fill="none" xmlns="http://www.w3.org/2000/svg">
<g clip-path="url(#clip0_395_4610)">
<path d="M20.25 10.6698C20.25 15.1965 16.5365 18.875 12 18.875C7.4635 18.875 3.75 15.1965 3.75 10.6698C3.75 10.507 3.88198 10.375 4.04478 10.375L19.9552 10.375C20.118 10.375 20.25 10.507 20.25 10.6698Z" stroke="white" stroke-width="1.5"/>
<path d="M14.5415 21.212L9.45801 21.212" stroke="white" stroke-width="1.5" stroke-linecap="round" stroke-linejoin="round"/>
<path d="M12.25 14.7555L20.1875 5.10602" stroke="white" stroke-width="1.5" stroke-linecap="round" stroke-linejoin="round"/>
<path d="M6.4375 5.47516L7.01181 6.04947C7.40233 6.43999 7.40233 7.07316 7.01181 7.46368L6.4375 8.03799" stroke="white" stroke-width="1.5" stroke-linecap="round" stroke-linejoin="round"/>
<path d="M10.875 3.71936L10.3007 4.29367C9.91017 4.6842 9.91017 5.31736 10.3007 5.70788L10.875 6.28219" stroke="white" stroke-width="1.5" stroke-linecap="round" stroke-linejoin="round"/>
</g>
<defs>
<clipPath id="clip0_395_4610">
<rect width="24" height="24" fill="white"/>
</clipPath>
</defs>
</svg>
