<svg width="24" height="24" viewBox="0 0 24 24" fill="none" xmlns="http://www.w3.org/2000/svg">
<path fill-rule="evenodd" clip-rule="evenodd" d="M6.55189 0.333496H17.4369C21.4036 0.333496 23.6669 2.5735 23.6669 6.55183V17.4485C23.6669 21.4035 21.4152 23.6668 17.4486 23.6668H6.55189C2.57356 23.6668 0.333557 21.4035 0.333557 17.4485V6.55183C0.333557 2.5735 2.57356 0.333496 6.55189 0.333496ZM12.9569 12.9685H16.2702C16.8069 12.9568 17.2386 12.5252 17.2386 11.9885C17.2386 11.4518 16.8069 11.0202 16.2702 11.0202H12.9569V7.73016C12.9569 7.1935 12.5252 6.76183 11.9886 6.76183C11.4519 6.76183 11.0202 7.1935 11.0202 7.73016V11.0202H7.71856C7.46189 11.0202 7.21689 11.1252 7.03022 11.3002C6.85522 11.4868 6.75022 11.7307 6.75022 11.9885C6.75022 12.5252 7.18189 12.9568 7.71856 12.9685H11.0202V16.2702C11.0202 16.8068 11.4519 17.2385 11.9886 17.2385C12.5252 17.2385 12.9569 16.8068 12.9569 16.2702V12.9685Z" fill="#19478D"/>
</svg>
