<svg width="24" height="24" viewBox="0 0 24 24" fill="none" xmlns="http://www.w3.org/2000/svg">
<path fill-rule="evenodd" clip-rule="evenodd" d="M7.21629 16.0026C7.05629 16.0026 6.89529 15.9516 6.75929 15.8476C6.43129 15.5946 6.36929 15.1236 6.62229 14.7956L9.61529 10.9056C9.73729 10.7466 9.91829 10.6436 10.1163 10.6186C10.3183 10.5926 10.5163 10.6486 10.6733 10.7736L13.4933 12.9886L15.9603 9.80562C16.2143 9.47662 16.6843 9.41562 17.0123 9.67162C17.3403 9.92562 17.4003 10.3966 17.1463 10.7236L14.2163 14.5036C14.0943 14.6616 13.9143 14.7646 13.7163 14.7886C13.5163 14.8156 13.3183 14.7576 13.1603 14.6346L10.3423 12.4206L7.81129 15.7096C7.66329 15.9016 7.44129 16.0026 7.21629 16.0026Z" fill="#9E9E9E"/>
<mask id="mask0_18478_8125" style="mask-type:luminance" maskUnits="userSpaceOnUse" x="17" y="2" width="6" height="6">
<path fill-rule="evenodd" clip-rule="evenodd" d="M17.2953 2H22.6393V7.3449H17.2953V2Z" fill="white"/>
</mask>
<g mask="url(#mask0_18478_8125)">
<path fill-rule="evenodd" clip-rule="evenodd" d="M19.9673 3.5C19.3213 3.5 18.7953 4.025 18.7953 4.672C18.7953 5.318 19.3213 5.845 19.9673 5.845C20.6133 5.845 21.1393 5.318 21.1393 4.672C21.1393 4.025 20.6133 3.5 19.9673 3.5ZM19.9673 7.345C18.4943 7.345 17.2953 6.146 17.2953 4.672C17.2953 3.198 18.4943 2 19.9673 2C21.4413 2 22.6393 3.198 22.6393 4.672C22.6393 6.146 21.4413 7.345 19.9673 7.345Z" fill="#9E9E9E"/>
</g>
<mask id="mask1_18478_8125" style="mask-type:luminance" maskUnits="userSpaceOnUse" x="2" y="2" width="20" height="21">
<path fill-rule="evenodd" clip-rule="evenodd" d="M2 2.8418H21.8619V22.7028H2V2.8418Z" fill="white"/>
</mask>
<g mask="url(#mask1_18478_8125)">
<path fill-rule="evenodd" clip-rule="evenodd" d="M16.2329 22.7028H7.62891C4.26191 22.7028 1.99991 20.3378 1.99991 16.8178V8.7358C1.99991 5.2108 4.26191 2.8418 7.62891 2.8418H14.8969C15.3109 2.8418 15.6469 3.1778 15.6469 3.5918C15.6469 4.0058 15.3109 4.3418 14.8969 4.3418H7.62891C5.12091 4.3418 3.49991 6.0658 3.49991 8.7358V16.8178C3.49991 19.5228 5.08191 21.2028 7.62891 21.2028H16.2329C18.7409 21.2028 20.3619 19.4818 20.3619 16.8178V9.7788C20.3619 9.3648 20.6979 9.0288 21.1119 9.0288C21.5259 9.0288 21.8619 9.3648 21.8619 9.7788V16.8178C21.8619 20.3378 19.5999 22.7028 16.2329 22.7028Z" fill="#9E9E9E"/>
</g>
</svg>
