<svg width="21" height="20" viewBox="0 0 21 20" fill="none" xmlns="http://www.w3.org/2000/svg">
<path d="M16.3185 12.32C16.0595 12.571 15.9405 12.934 15.9995 13.29L16.8885 18.21C16.9635 18.627 16.7875 19.049 16.4385 19.29C16.0965 19.54 15.6415 19.57 15.2685 19.37L10.8395 17.06C10.6855 16.978 10.5145 16.934 10.3395 16.929H10.0685C9.9745 16.943 9.8825 16.973 9.7985 17.019L5.3685 19.34C5.1495 19.45 4.9015 19.489 4.6585 19.45C4.0665 19.338 3.6715 18.774 3.7685 18.179L4.6585 13.259C4.7175 12.9 4.5985 12.535 4.3395 12.28L0.728503 8.78C0.426504 8.487 0.321503 8.047 0.459503 7.65C0.593504 7.254 0.935503 6.965 1.3485 6.9L6.3185 6.179C6.6965 6.14 7.0285 5.91 7.1985 5.57L9.3885 1.08C9.4405 0.98 9.5075 0.888 9.5885 0.81L9.6785 0.74C9.7255 0.688 9.7795 0.645 9.8395 0.61L9.9485 0.57L10.1185 0.5H10.5395C10.9155 0.539 11.2465 0.764 11.4195 1.1L13.6385 5.57C13.7985 5.897 14.1095 6.124 14.4685 6.179L19.4385 6.9C19.8585 6.96 20.2095 7.25 20.3485 7.65C20.4795 8.051 20.3665 8.491 20.0585 8.78L16.3185 12.32Z" fill="#19478D"/>
</svg>
