<svg width="20" height="19" viewBox="0 0 20 19" fill="none" xmlns="http://www.w3.org/2000/svg">
<path fill-rule="evenodd" clip-rule="evenodd" d="M10.1499 1.5C10.0589 1.5 9.83491 1.525 9.71591 1.763L7.88991 5.414C7.60091 5.991 7.04391 6.392 6.39991 6.484L2.31191 7.073C2.04191 7.112 1.94991 7.312 1.92191 7.396C1.89691 7.477 1.85691 7.683 2.04291 7.861L4.99891 10.701C5.46991 11.154 5.68391 11.807 5.57191 12.446L4.87591 16.456C4.83291 16.707 4.98991 16.853 5.05991 16.903C5.13391 16.959 5.33191 17.07 5.57691 16.942L9.23191 15.047C9.80791 14.75 10.4939 14.75 11.0679 15.047L14.7219 16.941C14.9679 17.068 15.1659 16.957 15.2409 16.903C15.3109 16.853 15.4679 16.707 15.4249 16.456L14.7269 12.446C14.6149 11.807 14.8289 11.154 15.2999 10.701L18.2559 7.861C18.4429 7.683 18.4029 7.476 18.3769 7.396C18.3499 7.312 18.2579 7.112 17.9879 7.073L13.8999 6.484C13.2569 6.392 12.6999 5.991 12.4109 5.413L10.5829 1.763C10.4649 1.525 10.2409 1.5 10.1499 1.5ZM5.34691 18.5C4.93391 18.5 4.52391 18.37 4.17291 18.114C3.56691 17.67 3.26991 16.937 3.39891 16.199L4.09491 12.189C4.12091 12.04 4.06991 11.889 3.95991 11.783L1.00391 8.943C0.45991 8.422 0.26491 7.652 0.49491 6.937C0.72691 6.214 1.34091 5.697 2.09791 5.589L6.18591 5C6.34391 4.978 6.47991 4.881 6.54791 4.743L8.37491 1.091C8.71191 0.418 9.39191 0 10.1499 0C10.9079 0 11.5879 0.418 11.9249 1.091L13.7529 4.742C13.8219 4.881 13.9569 4.978 14.1139 5L18.2019 5.589C18.9589 5.697 19.5729 6.214 19.8049 6.937C20.0349 7.652 19.8389 8.422 19.2949 8.943L16.3389 11.783C16.2289 11.889 16.1789 12.04 16.2049 12.188L16.9019 16.199C17.0299 16.938 16.7329 17.671 16.1259 18.114C15.5109 18.565 14.7099 18.626 14.0309 18.272L10.3779 16.379C10.2349 16.305 10.0639 16.305 9.92091 16.379L6.26791 18.273C5.97591 18.425 5.66091 18.5 5.34691 18.5Z" fill="#9E9E9E"/>
</svg>
