<svg width="24" height="24" viewBox="0 0 24 24" fill="none" xmlns="http://www.w3.org/2000/svg">
<path fill-rule="evenodd" clip-rule="evenodd" d="M12 3.5C7.95763 3.5 4.68066 6.77697 4.68066 10.8193C4.68066 14.8617 7.95763 18.1386 12 18.1386C16.0423 18.1386 19.3193 14.8617 19.3193 10.8193C19.3193 6.77697 16.0423 3.5 12 3.5ZM3.18066 10.8193C3.18066 5.94854 7.1292 2 12 2C16.8707 2 20.8193 5.94854 20.8193 10.8193C20.8193 13.5064 19.6175 15.9129 17.7221 17.5305L20.2713 20.7878C20.5266 21.114 20.4691 21.5854 20.1429 21.8406C19.8167 22.0959 19.3453 22.0384 19.0901 21.7122L16.5016 18.4048C15.1838 19.1885 13.6445 19.6386 12 19.6386C7.1292 19.6386 3.18066 15.6901 3.18066 10.8193ZM12.2557 7.2C10.1156 7.2 8.38066 8.9349 8.38066 11.075C8.38066 11.4892 8.04488 11.825 7.63066 11.825C7.21645 11.825 6.88066 11.4892 6.88066 11.075C6.88066 8.10647 9.28713 5.7 12.2557 5.7C12.6699 5.7 13.0057 6.03579 13.0057 6.45C13.0057 6.86421 12.6699 7.2 12.2557 7.2Z" fill="black"/>
</svg>
