<svg width="24" height="24" viewBox="0 0 24 24" fill="none" xmlns="http://www.w3.org/2000/svg">
<path d="M16.4708 4.39405C16.5518 4.43961 16.5923 4.46239 16.6291 4.48476C17.3967 4.95179 17.8546 5.79478 17.8286 6.69289C17.8273 6.73591 17.8244 6.7823 17.8185 6.87508L17.8141 6.94482C17.8032 7.11516 17.7978 7.20032 17.7978 7.27861C17.7971 8.18109 18.2828 9.0139 19.0687 9.45759C19.1369 9.49607 19.2137 9.5333 19.3672 9.60774L19.559 9.70071C19.5893 9.71541 19.6045 9.72276 19.6185 9.72974C20.4551 10.1483 20.9881 10.9989 20.9998 11.9344C21 11.95 21 11.9668 21 12.0005C21 12.0342 21 12.0511 20.9998 12.0667C20.9881 13.0021 20.4551 13.8528 19.6185 14.2713C19.6045 14.2783 19.5893 14.2857 19.559 14.3004L19.3854 14.3845C19.2068 14.4711 19.1175 14.5144 19.0386 14.56C18.2769 15.0004 17.8027 15.8088 17.7902 16.6886C17.7889 16.7797 17.7947 16.8788 17.8063 17.0769L17.8144 17.2145C17.8173 17.2647 17.8188 17.2897 17.8197 17.313C17.856 18.2207 17.397 19.0766 16.621 19.5487C16.6011 19.5608 16.5794 19.5734 16.536 19.5987C16.3744 19.6865 16.2936 19.7303 16.2156 19.766C15.4913 20.0971 14.6526 20.0634 13.9573 19.6751C13.8825 19.6333 13.8054 19.5831 13.6514 19.4827L13.5893 19.4422C13.3672 19.2974 13.2562 19.225 13.1477 19.1685C12.4277 18.7936 11.5705 18.7916 10.8488 19.1632C10.7401 19.2191 10.6287 19.291 10.4059 19.4348L10.2686 19.5234C10.1934 19.572 10.1559 19.5962 10.1201 19.6176C9.37577 20.0637 8.45331 20.0918 7.68313 19.692C7.64618 19.6728 7.60719 19.6509 7.52923 19.607C7.44819 19.5615 7.40767 19.5387 7.3709 19.5163C6.60333 19.0493 6.14542 18.2063 6.17144 17.3082C6.17268 17.2652 6.17563 17.2188 6.18152 17.126L6.18594 17.0562C6.19676 16.8859 6.20216 16.8007 6.20223 16.7225C6.20294 15.82 5.71719 14.9872 4.9313 14.5435C4.86314 14.505 4.78634 14.4678 4.63275 14.3933L4.44097 14.3004C4.41065 14.2857 4.39549 14.2783 4.38153 14.2713C3.54486 13.8528 3.01188 13.0021 3.00019 12.0667C3 12.0511 3 12.0342 3 12.0005C3 11.9668 3 11.95 3.00019 11.9344C3.01188 10.9989 3.54486 10.1483 4.38153 9.72974C4.39549 9.72276 4.41065 9.71541 4.44098 9.70071L4.61325 9.6172C4.79317 9.52999 4.88314 9.48638 4.96258 9.44039C5.72323 9.00006 6.19678 8.19264 6.2098 7.31382C6.21116 7.22205 6.20531 7.12224 6.1936 6.92263L6.18113 6.70993C6.12686 5.78459 6.5965 4.90708 7.39655 4.43897C7.62122 4.31699 7.73356 4.256 7.84078 4.21015C8.53316 3.91401 9.32214 3.94576 9.98849 4.29656C10.0917 4.35088 10.1972 4.41967 10.4082 4.55726C10.632 4.70316 10.7438 4.77611 10.8523 4.83257C11.5723 5.20749 12.4295 5.20948 13.1512 4.83789C13.2599 4.78193 13.3713 4.71005 13.5941 4.56628L13.7314 4.47762C13.8066 4.42911 13.8441 4.40486 13.8799 4.38346C14.6242 3.93738 15.5467 3.90924 16.3169 4.30911C16.3538 4.32829 16.3928 4.35021 16.4708 4.39405Z" stroke="black" stroke-width="2" stroke-linejoin="round"/>
<path d="M14.8874 12.0006C14.8874 13.5953 13.5947 14.8881 11.9999 14.8881C10.4052 14.8881 9.11244 13.5953 9.11244 12.0006C9.11244 10.4058 10.4052 9.11305 11.9999 9.11305C13.5947 9.11305 14.8874 10.4058 14.8874 12.0006Z" stroke="black" stroke-width="2" stroke-linejoin="round"/>
</svg>
