<svg width="24" height="25" viewBox="0 0 24 25" fill="none" xmlns="http://www.w3.org/2000/svg">
<path fill-rule="evenodd" clip-rule="evenodd" d="M11.9996 10.1414C10.6696 10.1414 9.58859 11.2234 9.58859 12.5534C9.58859 13.8824 10.6696 14.9634 11.9996 14.9634C13.3296 14.9634 14.4116 13.8824 14.4116 12.5534C14.4116 11.2234 13.3296 10.1414 11.9996 10.1414ZM11.9996 16.4634C9.84259 16.4634 8.08859 14.7094 8.08859 12.5534C8.08859 10.3964 9.84259 8.64136 11.9996 8.64136C14.1566 8.64136 15.9116 10.3964 15.9116 12.5534C15.9116 14.7094 14.1566 16.4634 11.9996 16.4634Z" fill="#212121"/>
<mask id="mask0_18532_3608" style="mask-type:luminance" maskUnits="userSpaceOnUse" x="2" y="4" width="20" height="17">
<path fill-rule="evenodd" clip-rule="evenodd" d="M2.00015 4.50024H22V20.6052H2.00015V4.50024Z" fill="white"/>
</mask>
<g mask="url(#mask0_18532_3608)">
<path fill-rule="evenodd" clip-rule="evenodd" d="M3.5699 12.5525C5.4299 16.6615 8.5629 19.1045 11.9999 19.1055C15.4369 19.1045 18.5699 16.6615 20.4299 12.5525C18.5699 8.44451 15.4369 6.00151 11.9999 6.00051C8.5639 6.00151 5.4299 8.44451 3.5699 12.5525ZM12.0019 20.6055H11.9979H11.9969C7.8609 20.6025 4.1469 17.7035 2.0609 12.8485C1.9799 12.6595 1.9799 12.4455 2.0609 12.2565C4.1469 7.40251 7.8619 4.50351 11.9969 4.50051C11.9989 4.49951 11.9989 4.49951 11.9999 4.50051C12.0019 4.49951 12.0019 4.49951 12.0029 4.50051C16.1389 4.50351 19.8529 7.40251 21.9389 12.2565C22.0209 12.4455 22.0209 12.6595 21.9389 12.8485C19.8539 17.7035 16.1389 20.6025 12.0029 20.6055H12.0019Z" fill="#212121"/>
</g>
</svg>
