<svg width="25" height="24" viewBox="0 0 25 24" fill="none" xmlns="http://www.w3.org/2000/svg">
<path fill-rule="evenodd" clip-rule="evenodd" d="M12.6505 8.5C11.6855 8.5 10.9005 9.285 10.9005 10.251C10.9005 11.216 11.6855 12 12.6505 12C13.6155 12 14.4005 11.216 14.4005 10.251C14.4005 9.285 13.6155 8.5 12.6505 8.5ZM12.6505 13.5C10.8585 13.5 9.40051 12.043 9.40051 10.251C9.40051 8.458 10.8585 7 12.6505 7C14.4425 7 15.9005 8.458 15.9005 10.251C15.9005 12.043 14.4425 13.5 12.6505 13.5Z" fill="#9E9E9E"/>
<mask id="mask0_18478_8113" style="mask-type:luminance" maskUnits="userSpaceOnUse" x="4" y="2" width="17" height="20">
<path fill-rule="evenodd" clip-rule="evenodd" d="M4.40001 2H20.8995V21.5H4.40001V2Z" fill="white"/>
</mask>
<g mask="url(#mask0_18478_8113)">
<path fill-rule="evenodd" clip-rule="evenodd" d="M12.6495 3.5C8.92751 3.5 5.89951 6.557 5.89951 10.313C5.89951 15.092 11.5235 19.748 12.6495 19.996C13.7755 19.747 19.3995 15.091 19.3995 10.313C19.3995 6.557 16.3715 3.5 12.6495 3.5ZM12.6495 21.5C10.8555 21.5 4.39951 15.948 4.39951 10.313C4.39951 5.729 8.10051 2 12.6495 2C17.1985 2 20.8995 5.729 20.8995 10.313C20.8995 15.948 14.4435 21.5 12.6495 21.5Z" fill="#9E9E9E"/>
</g>
</svg>
