<svg width="25" height="24" viewBox="0 0 25 24" fill="none" xmlns="http://www.w3.org/2000/svg">
<path fill-rule="evenodd" clip-rule="evenodd" d="M3.89999 10.3178C3.89999 5.71789 7.74388 2 12.3934 2C17.0561 2 20.9 5.71789 20.9 10.3178C20.9 12.6357 20.057 14.7876 18.6695 16.6116C17.1388 18.6235 15.2521 20.3765 13.1285 21.7524C12.6425 22.0704 12.2039 22.0944 11.6704 21.7524C9.53473 20.3765 7.64808 18.6235 6.13049 16.6116C4.74198 14.7876 3.89999 12.6357 3.89999 10.3178ZM9.59422 10.5768C9.59422 12.1177 10.8517 13.3297 12.3934 13.3297C13.9362 13.3297 15.2058 12.1177 15.2058 10.5768C15.2058 9.0478 13.9362 7.77683 12.3934 7.77683C10.8517 7.77683 9.59422 9.0478 9.59422 10.5768Z" fill="#19478D"/>
</svg>
