<svg width="24" height="24" viewBox="0 0 24 24" fill="none" xmlns="http://www.w3.org/2000/svg">
<path fill-rule="evenodd" clip-rule="evenodd" d="M11.9694 2H12.0306C13.52 2 14.6793 1.99999 15.6122 2.06889C16.559 2.13881 17.3317 2.28267 18.0358 2.60167C19.5274 3.27752 20.7225 4.47259 21.3983 5.96423C21.6463 6.51157 21.7885 7.10046 21.8723 7.78034C21.8965 7.8504 21.9106 7.92524 21.9129 8.00323C21.9147 8.06126 21.915 8.119 21.914 8.17643C21.9201 8.24593 21.9258 8.31637 21.9311 8.38781C22 9.32065 22 10.48 22 11.9694V12.0306C22 13.52 22 14.6793 21.9311 15.6122C21.8612 16.559 21.7173 17.3317 21.3983 18.0358C20.7225 19.5274 19.5274 20.7225 18.0358 21.3983C17.3317 21.7173 16.559 21.8612 15.6122 21.9311C15.3877 21.9477 15.15 21.9603 14.8978 21.9698C14.8308 21.9895 14.7599 22 14.6866 22C14.6298 22 14.5744 21.9937 14.5212 21.9817C13.8091 22 12.988 22 12.0306 22H11.9694C11.012 22 10.1909 22 9.47878 21.9817C9.42557 21.9937 9.37022 22 9.3134 22C9.24005 22 9.16918 21.9895 9.10218 21.9698C8.84997 21.9603 8.61233 21.9477 8.38781 21.9311C7.44105 21.8612 6.66827 21.7173 5.96423 21.3983C4.47259 20.7225 3.27752 19.5274 2.60167 18.0358C2.28267 17.3317 2.13881 16.559 2.06889 15.6122C1.99999 14.6793 2 13.52 2 12.0306V11.9694C2 10.48 1.99999 9.32066 2.06889 8.38781C2.07416 8.3164 2.07986 8.24598 2.08602 8.17651C2.085 8.11906 2.08533 8.06129 2.08705 8.00323C2.08935 7.92523 2.10349 7.85036 2.12769 7.78029C2.21153 7.10043 2.35368 6.51156 2.60167 5.96423C3.27752 4.47259 4.47259 3.27752 5.96423 2.60167C6.66827 2.28267 7.44105 2.13881 8.38781 2.06889C9.32066 1.99999 10.48 2 11.9694 2ZM3.50096 10.9712C3.50003 11.2916 3.5 11.6336 3.5 12C3.5 13.5264 3.50048 14.6306 3.56482 15.5017C3.6286 16.3653 3.75215 16.9404 3.96796 17.4167C4.49363 18.5769 5.42313 19.5064 6.58329 20.032C7.05961 20.2479 7.63466 20.3714 8.49829 20.4352C8.51985 20.4368 8.54155 20.4383 8.5634 20.4398L8.5634 17.4616C8.5634 15.5636 10.102 14.025 12 14.025C13.898 14.025 15.4366 15.5636 15.4366 17.4616V20.4398C15.4584 20.4383 15.4801 20.4368 15.5017 20.4352C16.3653 20.3714 16.9404 20.2479 17.4167 20.032C18.5769 19.5064 19.5064 18.5769 20.032 17.4167C20.2479 16.9404 20.3714 16.3653 20.4352 15.5017C20.4995 14.6306 20.5 13.5264 20.5 12C20.5 11.6336 20.5 11.2916 20.499 10.9712C19.894 11.4339 19.1373 11.7094 18.3147 11.7094H18.0429C16.7928 11.7094 15.6814 11.1157 14.9752 10.195C14.3062 11.1129 13.2228 11.7094 12 11.7094C10.7772 11.7094 9.69378 11.1129 9.02477 10.195C8.31856 11.1157 7.20716 11.7094 5.95711 11.7094H5.68526C4.86269 11.7094 4.10604 11.4339 3.50096 10.9712ZM8.32083 7.85209C8.31735 9.15457 7.26041 10.2094 5.95711 10.2094H5.68526C4.55967 10.2094 3.64568 9.32514 3.58831 8.22106C3.65717 7.5082 3.77611 7.00673 3.96796 6.58329C4.49363 5.42313 5.42313 4.49363 6.58329 3.96796C7.02621 3.76728 7.55451 3.64638 8.32083 3.57912V7.85209ZM9.82083 7.85388V8.03021C9.82083 9.23373 10.7965 10.2094 12 10.2094C13.2035 10.2094 14.1792 9.23373 14.1792 8.03021V3.5112C13.5608 3.50015 12.8451 3.5 12 3.5C11.1549 3.5 10.4392 3.50015 9.82083 3.5112V7.84565C9.82083 7.84839 9.82083 7.85114 9.82083 7.85388ZM15.6792 3.57912V7.84565C15.6792 9.15109 16.7374 10.2094 18.0429 10.2094H18.3147C19.4403 10.2094 20.3543 9.32511 20.4117 8.22101C20.3428 7.50817 20.2239 7.00672 20.032 6.58329C19.5064 5.42313 18.5769 4.49363 17.4167 3.96796C16.9738 3.76728 16.4455 3.64637 15.6792 3.57912ZM13.9366 20.4925V17.4616C13.9366 16.392 13.0695 15.525 12 15.525C10.9304 15.525 10.0634 16.392 10.0634 17.4616L10.0634 20.4925C10.6247 20.4999 11.2632 20.5 12 20.5C12.7368 20.5 13.3753 20.4999 13.9366 20.4925Z" fill="black"/>
</svg>
