<svg width="63" height="51" viewBox="0 0 63 51" fill="none" xmlns="http://www.w3.org/2000/svg">
<path d="M35.4782 25.2208C35.99 25.5931 36.5251 25.7792 37.0834 25.7792C37.6417 25.7792 38.1768 25.5931 38.6886 25.2208L56.6251 12.7281V5.95833L37.0834 19.4979L17.5417 5.95833V12.7281L35.4782 25.2208ZM6.37508 50.625C4.83966 50.625 3.52525 50.0783 2.43185 48.9849C1.33845 47.8915 0.791748 46.5771 0.791748 45.0417V12.9375C0.791748 12.1465 1.05928 11.4835 1.59435 10.9484C2.12942 10.4134 2.79244 10.1458 3.58341 10.1458C4.37439 10.1458 5.03741 10.4134 5.57248 10.9484C6.10755 11.4835 6.37508 12.1465 6.37508 12.9375V45.0417H49.6459C50.4369 45.0417 51.0999 45.3092 51.635 45.8443C52.17 46.3793 52.4376 47.0424 52.4376 47.8333C52.4376 48.6243 52.17 49.2873 51.635 49.8224C51.0999 50.3575 50.4369 50.625 49.6459 50.625H6.37508ZM17.5417 39.4583C16.0063 39.4583 14.6919 38.9116 13.5985 37.8182C12.5051 36.7248 11.9584 35.4104 11.9584 33.875V5.95833C11.9584 4.42292 12.5051 3.10851 13.5985 2.0151C14.6919 0.921701 16.0063 0.375 17.5417 0.375H56.6251C58.1605 0.375 59.4749 0.921701 60.5683 2.0151C61.6617 3.10851 62.2084 4.42292 62.2084 5.95833V33.875C62.2084 35.4104 61.6617 36.7248 60.5683 37.8182C59.4749 38.9116 58.1605 39.4583 56.6251 39.4583H17.5417Z" fill="#E74030"/>
</svg>
