<svg width="180" height="216" viewBox="0 0 180 216" fill="none" xmlns="http://www.w3.org/2000/svg">
<g filter="url(#filter0_i_18532_6977)">
<path fill-rule="evenodd" clip-rule="evenodd" d="M82.9262 16.5416C84.9174 14.8986 87.4185 14 90 14C92.5816 14 95.0826 14.8986 97.0738 16.5416C110.61 27.7963 123.011 40.3491 134.101 54.0205C149.548 73.2261 165.353 99.2889 165.353 126.548C165.353 146.533 157.414 165.699 143.283 179.831C129.151 193.962 109.985 201.901 90 201.901C70.0151 201.901 50.8487 193.962 36.7172 179.831C22.5857 165.699 14.6467 146.533 14.6467 126.548C14.6467 99.2889 30.4521 73.2261 45.8995 54.011C56.9867 40.3435 69.3943 27.7939 82.9262 16.5416Z" fill="#EEEEEE"/>
</g>
<path d="M170.377 128.623C170.377 173.014 134.391 209 90 209C45.6089 209 9.62317 173.014 9.62317 128.623C9.62317 128.623 52.4908 148.273 90 128.623C132.868 108.084 170.377 128.623 170.377 128.623Z" fill="#0062E5"/>
<path d="M9.62317 128.623C9.62317 173.014 45.609 209 90 209C134.391 209 170.377 173.014 170.377 128.623C170.377 128.623 124.83 148.271 90 128.623C53.5869 108.084 9.62317 128.623 9.62317 128.623Z" fill="#2F88FF"/>
<path fill-rule="evenodd" clip-rule="evenodd" d="M73.9955 5.75999L74.0161 5.74307C78.5154 2.03053 84.1668 0 90 0C95.8333 0 101.485 2.03053 105.984 5.74307L106.004 5.75986L106.025 5.77673C120.263 17.6156 133.308 30.82 144.973 45.201L144.992 45.2235L145.01 45.2461C160.937 65.0484 179.353 94.3099 179.353 126.548C179.353 150.246 169.939 172.973 153.182 189.73C136.425 206.487 113.698 215.901 90 215.901C66.302 215.901 43.5747 206.487 26.8177 189.73C10.0607 172.973 0.646729 150.246 0.646729 126.548C0.646729 94.3101 19.0631 65.0486 34.9882 45.2392L35.0076 45.2152L35.027 45.1912C46.6919 30.8115 59.7435 17.611 73.9751 5.777L73.9955 5.75999ZM97.0738 16.5416C95.0826 14.8986 92.5816 14 90 14C87.4185 14 84.9174 14.8986 82.9262 16.5416C69.3943 27.7939 56.9867 40.3435 45.8995 54.011C30.4521 73.2261 14.6467 99.2889 14.6467 126.548C14.6467 146.533 22.5857 165.699 36.7172 179.831C50.8487 193.962 70.0151 201.901 90 201.901C109.985 201.901 129.151 193.962 143.283 179.831C157.414 165.699 165.353 146.533 165.353 126.548C165.353 99.2889 149.548 73.2261 134.101 54.0205C123.011 40.3491 110.61 27.7963 97.0738 16.5416Z" fill="#F5F5F5"/>
<defs>
<filter id="filter0_i_18532_6977" x="14.6467" y="14" width="150.707" height="195.901" filterUnits="userSpaceOnUse" color-interpolation-filters="sRGB">
<feFlood flood-opacity="0" result="BackgroundImageFix"/>
<feBlend mode="normal" in="SourceGraphic" in2="BackgroundImageFix" result="shape"/>
<feColorMatrix in="SourceAlpha" type="matrix" values="0 0 0 0 0 0 0 0 0 0 0 0 0 0 0 0 0 0 127 0" result="hardAlpha"/>
<feOffset dy="8"/>
<feGaussianBlur stdDeviation="6"/>
<feComposite in2="hardAlpha" operator="arithmetic" k2="-1" k3="1"/>
<feColorMatrix type="matrix" values="0 0 0 0 0 0 0 0 0 0 0 0 0 0 0 0 0 0 0.08 0"/>
<feBlend mode="normal" in2="shape" result="effect1_innerShadow_18532_6977"/>
</filter>
</defs>
</svg>
